# Blender v2.90.1 OBJ File: 'Remesh_Assets.blend'
# www.blender.org
mtllib CanaletaFerro_2m_Remesh.mtl
o CanaletaFerro_2m_Remesh_Cube.001
v 0.092213 0.000000 0.036530
v 0.092213 2.000000 0.036530
v 0.092213 0.000000 -0.012177
v 0.092213 2.000000 -0.012177
v 0.217585 0.000000 0.036530
v 0.217585 2.000000 0.036530
v 0.217585 0.000000 -0.012177
v 0.217585 2.000000 -0.012177
v 0.115198 2.000000 0.036530
v 0.194600 2.000000 0.036530
v 0.115198 0.000000 0.036530
v 0.194600 0.000000 0.036530
v -0.092213 0.000000 0.036530
v -0.092213 2.000000 0.036530
v -0.092213 0.000000 -0.012177
v -0.092213 2.000000 -0.012177
v -0.217585 0.000000 0.036530
v -0.217585 2.000000 0.036530
v -0.217585 0.000000 -0.012177
v -0.217585 2.000000 -0.012177
v -0.115198 2.000000 0.036530
v -0.194600 2.000000 0.036530
v -0.115198 0.000000 0.036530
v -0.194600 0.000000 0.036530
v 0.104713 0.000000 0.024030
v 0.104713 2.000000 0.024030
v 0.104713 0.000000 0.000323
v 0.104713 2.000000 0.000323
v 0.205085 0.000000 0.024030
v 0.205085 2.000000 0.024030
v 0.205085 0.000000 0.000323
v 0.205085 2.000000 0.000323
v 0.115198 2.000000 0.024030
v 0.194600 2.000000 0.024030
v 0.115198 0.000000 0.024030
v 0.194600 0.000000 0.024030
v -0.104713 0.000000 0.024030
v -0.104713 2.000000 0.024030
v -0.104713 0.000000 0.000323
v -0.104713 2.000000 0.000323
v -0.205085 0.000000 0.024030
v -0.205085 2.000000 0.024030
v -0.205085 0.000000 0.000323
v -0.205085 2.000000 0.000323
v -0.115198 2.000000 0.024030
v -0.194600 2.000000 0.024030
v -0.115198 0.000000 0.024030
v -0.194600 0.000000 0.024030
vt 0.463671 1.000000
vt 0.463671 0.000000
vt 0.513691 0.000000
vt 0.513692 1.000000
vt 0.128756 1.000000
vt 0.128755 0.000000
vt 0.257510 0.000000
vt 0.257510 1.000000
vt 0.663753 0.000000
vt 0.663753 1.000000
vt 0.613733 1.000000
vt 0.613733 0.000000
vt 0.831953 1.000000
vt 0.808348 1.000000
vt 0.808348 0.000000
vt 0.831953 0.000000
vt 0.808348 1.000000
vt 0.784743 1.000000
vt 0.784742 0.000000
vt 0.808347 0.000000
vt 0.563712 0.000000
vt 0.613733 0.000000
vt 0.613733 1.000000
vt 0.563712 1.000000
vt 0.128755 1.000000
vt 0.000000 1.000000
vt 0.000000 0.000000
vt 0.128755 0.000000
vt 0.563712 1.000000
vt 0.513692 1.000000
vt 0.513692 0.000000
vt 0.563712 0.000000
vt 0.831953 1.000000
vt 0.831953 0.000000
vt 0.855558 0.000000
vt 0.855558 1.000000
vt 0.761137 1.000000
vt 0.761137 0.000000
vt 0.784742 0.000000
vt 0.784742 1.000000
vt 0.712445 0.000000
vt 0.736791 0.000000
vt 0.736791 1.000000
vt 0.712445 1.000000
vt 0.360591 1.000000
vt 0.257511 1.000000
vt 0.257510 0.000000
vt 0.360590 0.000000
vt 0.688099 1.000000
vt 0.663753 1.000000
vt 0.663753 0.000000
vt 0.688099 0.000000
vt 0.917676 0.000000
vt 0.917676 1.000000
vt 0.906908 1.000000
vt 0.906908 0.000000
vt 0.928444 1.000000
vt 0.928444 0.000000
vt 0.939212 0.000000
vt 0.939212 1.000000
vt 0.688100 1.000000
vt 0.688099 0.000000
vt 0.712445 0.000000
vt 0.712445 1.000000
vt 0.360591 1.000000
vt 0.360591 0.000000
vt 0.463671 0.000000
vt 0.463671 1.000000
vt 0.761137 0.000000
vt 0.761137 1.000000
vt 0.736791 1.000000
vt 0.736791 0.000000
vt 0.917676 0.000000
vt 0.928444 0.000000
vt 0.928444 1.000000
vt 0.917676 1.000000
vt 0.949979 1.000000
vt 0.939212 1.000000
vt 0.939212 0.000000
vt 0.949980 0.000000
vt 1.000000 0.188058
vt 0.949980 0.188058
vt 0.962817 0.181808
vt 0.987163 0.181808
vt 1.000000 0.125372
vt 0.949980 0.125372
vt 0.962817 0.119122
vt 0.987163 0.119122
vt 0.949980 0.125372
vt 0.962817 0.131622
vt 1.000000 0.062686
vt 0.987163 0.068936
vt 1.000000 0.125372
vt 0.987163 0.131622
vt 0.949980 0.062686
vt 0.962817 0.068936
vt 0.949980 0.074178
vt 0.962817 0.074178
vt 1.000000 0.136864
vt 0.987163 0.136864
vt 0.949980 0.113880
vt 0.962817 0.113880
vt 1.000000 0.176565
vt 0.987163 0.176565
vt 0.894071 1.000000
vt 0.894071 0.000000
vt 0.868396 1.000000
vt 0.868396 0.000000
vt 0.881233 0.000000
vt 0.881233 1.000000
vt 0.949980 0.000000
vt 1.000000 0.000000
vt 0.987163 0.006250
vt 0.962817 0.006250
vt 0.949980 0.188058
vt 1.000000 0.188058
vt 0.987163 0.194308
vt 0.962817 0.194308
vt 0.949980 0.062686
vt 0.962817 0.056436
vt 1.000000 0.250744
vt 0.987163 0.244494
vt 1.000000 0.062686
vt 0.987163 0.056436
vt 0.949980 0.250744
vt 0.962817 0.244494
vt 0.949980 0.239251
vt 0.962817 0.239251
vt 1.000000 0.051194
vt 0.987163 0.051194
vt 0.949980 0.199550
vt 0.962817 0.199550
vt 1.000000 0.011492
vt 0.987163 0.011492
vt 0.868395 0.000000
vt 0.868396 1.000000
vt 0.881233 1.000000
vt 0.881233 0.000000
vt 0.894071 0.000000
vt 0.894071 1.000000
vn -1.0000 0.0000 0.0000
vn 0.0000 0.0000 -1.0000
vn 1.0000 0.0000 0.0000
vn 0.0000 0.0000 1.0000
vn 0.0000 -1.0000 0.0000
vn 0.0000 1.0000 0.0000
usemtl None
s off
f 1/1/1 2/2/1 4/3/1 3/4/1
f 3/5/2 4/6/2 8/7/2 7/8/2
f 7/9/3 8/10/3 6/11/3 5/12/3
f 1/13/4 11/14/4 9/15/4 2/16/4
f 12/17/4 5/18/4 6/19/4 10/20/4
f 13/21/3 15/22/3 16/23/3 14/24/3
f 15/25/2 19/26/2 20/27/2 16/28/2
f 19/29/1 17/30/1 18/31/1 20/32/1
f 13/33/4 14/34/4 21/35/4 23/36/4
f 24/37/4 22/38/4 18/39/4 17/40/4
f 25/41/3 27/42/3 28/43/3 26/44/3
f 27/45/4 31/46/4 32/47/4 28/48/4
f 31/49/1 29/50/1 30/51/1 32/52/1
f 25/53/2 26/54/2 33/55/2 35/56/2
f 36/57/2 34/58/2 30/59/2 29/60/2
f 37/61/1 38/62/1 40/63/1 39/64/1
f 39/65/4 40/66/4 44/67/4 43/68/4
f 43/69/3 44/70/3 42/71/3 41/72/3
f 37/73/2 47/74/2 45/75/2 38/76/2
f 48/77/2 41/78/2 42/79/2 46/80/2
f 1/81/5 3/82/5 27/83/5 25/84/5
f 4/85/6 2/86/6 26/87/6 28/88/6
f 3/82/5 7/89/5 31/90/5 27/83/5
f 8/91/6 4/85/6 28/88/6 32/92/6
f 7/89/5 5/93/5 29/94/5 31/90/5
f 6/95/6 8/91/6 32/92/6 30/96/6
f 10/97/6 6/95/6 30/96/6 34/98/6
f 5/93/5 12/99/5 36/100/5 29/94/5
f 2/86/6 9/101/6 33/102/6 26/87/6
f 11/103/5 1/81/5 25/84/5 35/104/5
f 9/105/3 11/106/3 35/56/3 33/55/3
f 12/107/1 10/108/1 34/109/1 36/110/1
f 15/111/5 13/112/5 37/113/5 39/114/5
f 14/115/6 16/116/6 40/117/6 38/118/6
f 19/119/5 15/111/5 39/114/5 43/120/5
f 16/116/6 20/121/6 44/122/6 40/117/6
f 17/123/5 19/119/5 43/120/5 41/124/5
f 20/121/6 18/125/6 42/126/6 44/122/6
f 18/125/6 22/127/6 46/128/6 42/126/6
f 24/129/5 17/123/5 41/124/5 48/130/5
f 21/131/6 14/115/6 38/118/6 45/132/6
f 13/112/5 23/133/5 47/134/5 37/113/5
f 23/36/1 21/35/1 45/135/1 47/136/1
f 22/137/3 24/138/3 48/139/3 46/140/3
