# Blender v2.90.1 OBJ File: 'Assets_Labirinto.blend'
# www.blender.org
mtllib SM_CircleChao_001.mtl
o CircleChão.001_Circle.001
v 1.500000 3.000000 1.500000
v 0.780363 3.000000 3.923141
v 1.530735 3.000000 3.695517
v 2.222283 3.000000 3.325877
v 2.828429 3.000000 2.828425
v 3.325880 3.000000 2.222279
v 3.695519 3.000000 1.530731
v 3.923142 3.000000 0.780358
v 0.780363 2.878424 3.923141
v 1.530735 2.878424 3.695517
v 2.222283 2.878424 3.325877
v 2.828429 2.878424 2.828425
v 3.325880 2.878424 2.222279
v 3.695519 2.878424 1.530731
v 3.923142 2.878424 0.780358
v 1.500000 3.000000 0.298367
v 1.500000 3.000000 0.621319
v 1.500000 3.000000 1.002266
v 1.002269 3.000000 1.500000
v 0.621321 3.000000 1.500000
v 0.298369 3.000000 1.500000
v 1.500000 2.878424 1.500000
v 0.621321 2.878424 1.500000
v 1.002269 2.878424 1.500000
v 0.298369 2.878424 1.500000
v 1.500000 2.878424 0.298367
v 1.500000 2.878424 0.621319
v 1.500000 2.878424 1.002266
v -1.500000 3.000000 1.500000
v 0.000000 3.000000 4.000000
v -0.780363 3.000000 3.923141
v -1.530735 3.000000 3.695517
v -2.222283 3.000000 3.325877
v -2.828429 3.000000 2.828425
v -3.325880 3.000000 2.222279
v -3.695519 3.000000 1.530731
v -3.923142 3.000000 0.780358
v 0.000000 2.878424 4.000000
v -0.780363 2.878424 3.923141
v -1.530735 2.878424 3.695517
v -2.222283 2.878424 3.325877
v -2.828429 2.878424 2.828425
v -3.325880 2.878424 2.222279
v -3.695519 2.878424 1.530731
v -3.923142 2.878424 0.780358
v -1.500000 3.000000 0.298367
v -1.500000 3.000000 0.621319
v -1.500000 3.000000 1.002266
v -1.002269 3.000000 1.500000
v -0.621321 3.000000 1.500000
v -0.298369 3.000000 1.500000
v 0.000000 3.000000 1.500000
v -1.500000 2.878424 1.500000
v -0.621321 2.878424 1.500000
v -1.002269 2.878424 1.500000
v 0.000000 2.878424 1.500000
v -0.298369 2.878424 1.500000
v -1.500000 2.878424 0.298367
v -1.500000 2.878424 0.621319
v -1.500000 2.878424 1.002266
v 1.500000 3.000000 -1.500000
v 0.780363 3.000000 -3.923141
v 1.530735 3.000000 -3.695517
v 2.222283 3.000000 -3.325877
v 2.828429 3.000000 -2.828425
v 3.325880 3.000000 -2.222279
v 3.695519 3.000000 -1.530731
v 3.923142 3.000000 -0.780358
v 4.000000 3.000000 0.000000
v 0.780363 2.878424 -3.923141
v 1.530735 2.878424 -3.695517
v 2.222283 2.878424 -3.325877
v 2.828429 2.878424 -2.828425
v 3.325880 2.878424 -2.222279
v 3.695519 2.878424 -1.530731
v 3.923142 2.878424 -0.780358
v 4.000000 2.878424 0.000000
v 1.500000 3.000000 0.000000
v 1.500000 3.000000 -0.298367
v 1.500000 3.000000 -0.621319
v 1.500000 3.000000 -1.002266
v 1.002269 3.000000 -1.500000
v 0.621321 3.000000 -1.500000
v 0.298369 3.000000 -1.500000
v 1.500000 2.878424 -1.500000
v 0.621321 2.878424 -1.500000
v 1.002269 2.878424 -1.500000
v 0.298369 2.878424 -1.500000
v 1.500000 2.878424 0.000000
v 1.500000 2.878424 -0.298367
v 1.500000 2.878424 -0.621319
v 1.500000 2.878424 -1.002266
v -1.500000 3.000000 -1.500000
v 0.000000 3.000000 -4.000000
v -0.780363 3.000000 -3.923141
v -1.530735 3.000000 -3.695517
v -2.222283 3.000000 -3.325877
v -2.828429 3.000000 -2.828425
v -3.325880 3.000000 -2.222279
v -3.695519 3.000000 -1.530731
v -3.923142 3.000000 -0.780358
v -4.000000 3.000000 0.000000
v 0.000000 2.878424 -4.000000
v -0.780363 2.878424 -3.923141
v -1.530735 2.878424 -3.695517
v -2.222283 2.878424 -3.325877
v -2.828429 2.878424 -2.828425
v -3.325880 2.878424 -2.222279
v -3.695519 2.878424 -1.530731
v -3.923142 2.878424 -0.780358
v -4.000000 2.878424 0.000000
v -1.500000 3.000000 0.000000
v -1.500000 3.000000 -0.298367
v -1.500000 3.000000 -0.621319
v -1.500000 3.000000 -1.002266
v -1.002269 3.000000 -1.500000
v -0.621321 3.000000 -1.500000
v -0.298369 3.000000 -1.500000
v 0.000000 3.000000 -1.500000
v -1.500000 2.878424 -1.500000
v -0.621321 2.878424 -1.500000
v -1.002269 2.878424 -1.500000
v 0.000000 2.878424 -1.500000
v -0.298369 2.878424 -1.500000
v -1.500000 2.878424 0.000000
v -1.500000 2.878424 -0.298367
v -1.500000 2.878424 -0.621319
v -1.500000 2.878424 -1.002266
vt 0.514824 0.879405
vt 0.513534 0.872648
vt 0.514599 0.872547
vt 0.515849 0.879096
vt 0.513608 0.865773
vt 0.514673 0.865888
vt 0.515052 0.859035
vt 0.516080 0.859363
vt 0.531792 0.900207
vt 0.526112 0.896412
vt 0.526786 0.895585
vt 0.532286 0.899289
vt 0.517852 0.852649
vt 0.518812 0.853196
vt 0.521243 0.891533
vt 0.522070 0.890851
vt 0.517427 0.885785
vt 0.518373 0.885279
vt 0.421479 0.782268
vt 0.423367 0.784232
vt 0.405415 0.803032
vt 0.399324 0.795655
vt 0.416899 0.770386
vt 0.418292 0.776256
vt 0.393289 0.777890
vt 0.392945 0.770932
vt 0.422323 0.781592
vt 0.420754 0.779200
vt 0.434470 0.771039
vt 0.434765 0.771512
vt 0.420906 0.758320
vt 0.419321 0.760938
vt 0.394496 0.754732
vt 0.398181 0.745921
vt 0.424106 0.783458
vt 0.435133 0.771929
vt 0.419407 0.775907
vt 0.434267 0.770523
vt 0.419133 0.764758
vt 0.420332 0.761416
vt 0.434406 0.768925
vt 0.434234 0.769458
vt 0.421789 0.758952
vt 0.423500 0.757000
vt 0.435016 0.768002
vt 0.434674 0.768434
vt 0.418020 0.764467
vt 0.392974 0.763964
vt 0.418555 0.770347
vt 0.434195 0.769992
vt 0.422710 0.756243
vt 0.403940 0.738252
vt 0.419766 0.779734
vt 0.395236 0.787037
vt 0.558667 0.903081
vt 0.558370 0.902039
vt 0.564635 0.899533
vt 0.565130 0.900496
vt 0.570290 0.895850
vt 0.570964 0.896699
vt 0.575116 0.891117
vt 0.575952 0.891819
vt 0.538416 0.901843
vt 0.538094 0.902865
vt 0.578925 0.885456
vt 0.579909 0.885985
vt 0.544995 0.903208
vt 0.544873 0.904281
vt 0.551736 0.903279
vt 0.551825 0.904357
vt 0.448601 0.753871
vt 0.460965 0.731229
vt 0.468561 0.736971
vt 0.450643 0.755668
vt 0.436555 0.749824
vt 0.436077 0.725927
vt 0.443021 0.725979
vt 0.442462 0.750955
vt 0.447964 0.754742
vt 0.438405 0.767592
vt 0.437925 0.767330
vt 0.445508 0.753281
vt 0.424704 0.754350
vt 0.411361 0.732186
vt 0.420000 0.728146
vt 0.427246 0.752652
vt 0.449903 0.756440
vt 0.438820 0.767942
vt 0.437402 0.767168
vt 0.442162 0.752082
vt 0.431048 0.752294
vt 0.436377 0.767194
vt 0.435883 0.767371
vt 0.427769 0.753639
vt 0.425374 0.755204
vt 0.435426 0.767645
vt 0.430708 0.751198
vt 0.429137 0.726246
vt 0.436587 0.751475
vt 0.436887 0.767128
vt 0.452213 0.727527
vt 0.445997 0.752273
vt 0.539140 0.836424
vt 0.539395 0.837452
vt 0.533196 0.839711
vt 0.532739 0.838754
vt 0.527566 0.843171
vt 0.526925 0.842321
vt 0.522714 0.847710
vt 0.521909 0.846998
vt 0.565608 0.838904
vt 0.565149 0.839810
vt 0.559119 0.837488
vt 0.559402 0.836482
vt 0.552635 0.836387
vt 0.552722 0.835330
vt 0.545948 0.836481
vt 0.545867 0.835420
vt 0.425416 0.786026
vt 0.413074 0.808771
vt 0.437493 0.790028
vt 0.438084 0.813970
vt 0.431114 0.813955
vt 0.431570 0.788922
vt 0.426052 0.785152
vt 0.435567 0.772273
vt 0.436046 0.772537
vt 0.428513 0.786607
vt 0.449350 0.785436
vt 0.462795 0.807540
vt 0.454181 0.811644
vt 0.446812 0.787148
vt 0.436560 0.772706
vt 0.431865 0.787793
vt 0.443005 0.787524
vt 0.437611 0.772689
vt 0.438134 0.772494
vt 0.446285 0.786161
vt 0.448676 0.784585
vt 0.438608 0.772206
vt 0.439012 0.771843
vt 0.450544 0.782781
vt 0.443350 0.788621
vt 0.445042 0.813611
vt 0.437452 0.788373
vt 0.437086 0.772752
vt 0.451338 0.783534
vt 0.470166 0.801423
vt 0.421880 0.812447
vt 0.428027 0.787617
vt 0.582570 0.859074
vt 0.583925 0.865794
vt 0.582861 0.865904
vt 0.581554 0.859392
vt 0.583925 0.872679
vt 0.582854 0.872578
vt 0.582582 0.879481
vt 0.581541 0.879171
vt 0.571225 0.842473
vt 0.570582 0.843294
vt 0.576073 0.847170
vt 0.575270 0.847853
vt 0.579915 0.852782
vt 0.578986 0.853293
vt 0.452524 0.757632
vt 0.474586 0.744326
vt 0.457072 0.769419
vt 0.455686 0.763606
vt 0.480545 0.761955
vt 0.480902 0.768835
vt 0.451681 0.758305
vt 0.453245 0.760689
vt 0.439405 0.768877
vt 0.439157 0.768373
vt 0.453132 0.781449
vt 0.454704 0.778827
vt 0.479455 0.784919
vt 0.475853 0.793724
vt 0.454581 0.763953
vt 0.439611 0.769380
vt 0.454875 0.775017
vt 0.453694 0.778354
vt 0.439564 0.770936
vt 0.439691 0.770421
vt 0.452247 0.780822
vt 0.439335 0.771414
vt 0.455984 0.775302
vt 0.480902 0.775735
vt 0.455428 0.769459
vt 0.439706 0.769900
vt 0.454226 0.760158
vt 0.478620 0.752890
vn -0.7730 0.0000 -0.6344
vn -0.8819 0.0000 -0.4714
vn -0.9569 0.0000 -0.2903
vn -0.0980 0.0000 -0.9952
vn -0.9952 0.0000 -0.0980
vn -0.2903 0.0000 -0.9569
vn -0.4714 0.0000 -0.8819
vn -0.6344 0.0000 -0.7730
vn 0.0000 -1.0000 0.0000
vn 0.0000 1.0000 0.0000
vn 1.0000 0.0000 0.0000
vn 0.0000 0.0000 1.0000
vn 0.7730 0.0000 -0.6344
vn 0.8819 0.0000 -0.4714
vn 0.9569 0.0000 -0.2903
vn 0.0980 0.0000 -0.9952
vn 0.9952 0.0000 -0.0980
vn 0.2903 0.0000 -0.9569
vn 0.4714 0.0000 -0.8819
vn 0.6344 0.0000 -0.7730
vn -1.0000 0.0000 0.0000
vn -0.7730 0.0000 0.6344
vn -0.8819 0.0000 0.4714
vn -0.9569 0.0000 0.2903
vn -0.0980 0.0000 0.9952
vn -0.9952 0.0000 0.0980
vn -0.2903 0.0000 0.9569
vn -0.4714 0.0000 0.8819
vn -0.6344 0.0000 0.7730
vn 0.0000 0.0000 -1.0000
vn 0.7730 0.0000 0.6344
vn 0.8819 0.0000 0.4714
vn 0.9569 0.0000 0.2903
vn 0.0980 0.0000 0.9952
vn 0.9952 0.0000 0.0980
vn 0.2903 0.0000 0.9569
vn 0.4714 0.0000 0.8819
vn 0.6344 0.0000 0.7730
usemtl (null)
s off
f 5/1/1 6/2/1 13/3/1 12/4/1
f 6/2/2 7/5/2 14/6/2 13/3/2
f 7/5/3 8/7/3 15/8/3 14/6/3
f 30/9/4 2/10/4 9/11/4 38/12/4
f 8/7/5 69/13/5 77/14/5 15/8/5
f 2/10/6 3/15/6 10/16/6 9/11/6
f 3/15/7 4/17/7 11/18/7 10/16/7
f 4/17/8 5/1/8 12/4/8 11/18/8
f 16/19/9 78/20/9 69/21/9 8/22/9
f 1/23/9 18/24/9 6/25/9 5/26/9
f 26/27/10 27/28/10 14/29/10 15/30/10
f 21/31/9 20/32/9 3/33/9 2/34/9
f 89/35/10 26/27/10 15/30/10 77/36/10
f 27/28/10 28/37/10 13/38/10 14/29/10
f 24/39/10 23/40/10 10/41/10 11/42/10
f 25/43/10 56/44/10 38/45/10 9/46/10
f 19/47/9 1/23/9 5/26/9 4/48/9
f 22/49/10 24/39/10 11/42/10 12/50/10
f 20/32/9 19/47/9 4/48/9 3/33/9
f 23/40/10 25/43/10 9/46/10 10/41/10
f 52/51/9 21/31/9 2/34/9 30/52/9
f 18/24/9 17/53/9 7/54/9 6/25/9
f 17/53/9 16/19/9 8/22/9 7/54/9
f 28/37/10 22/49/10 12/50/10 13/38/10
f 18/24/11 1/23/11 22/49/11 28/37/11
f 78/20/11 16/19/11 26/27/11 89/35/11
f 16/19/11 17/53/11 27/28/11 26/27/11
f 17/53/11 18/24/11 28/37/11 27/28/11
f 19/47/12 24/39/12 22/49/12 1/23/12
f 19/47/12 20/32/12 23/40/12 24/39/12
f 20/32/12 21/31/12 25/43/12 23/40/12
f 21/31/12 52/51/12 56/44/12 25/43/12
f 34/55/13 42/56/13 43/57/13 35/58/13
f 35/58/14 43/57/14 44/59/14 36/60/14
f 36/60/15 44/59/15 45/61/15 37/62/15
f 30/9/16 38/12/16 39/63/16 31/64/16
f 37/62/17 45/61/17 111/65/17 102/66/17
f 31/64/18 39/63/18 40/67/18 32/68/18
f 32/68/19 40/67/19 41/69/19 33/70/19
f 33/70/20 41/69/20 42/56/20 34/55/20
f 46/71/9 37/72/9 102/73/9 112/74/9
f 29/75/9 34/76/9 35/77/9 48/78/9
f 58/79/10 45/80/10 44/81/10 59/82/10
f 51/83/9 31/84/9 32/85/9 50/86/9
f 125/87/10 111/88/10 45/80/10 58/79/10
f 59/82/10 44/81/10 43/89/10 60/90/10
f 55/91/10 41/92/10 40/93/10 54/94/10
f 57/95/10 39/96/10 38/45/10 56/44/10
f 49/97/9 33/98/9 34/76/9 29/75/9
f 53/99/10 42/100/10 41/92/10 55/91/10
f 50/86/9 32/85/9 33/98/9 49/97/9
f 54/94/10 40/93/10 39/96/10 57/95/10
f 52/51/9 30/52/9 31/84/9 51/83/9
f 48/78/9 35/77/9 36/101/9 47/102/9
f 47/102/9 36/101/9 37/72/9 46/71/9
f 60/90/10 43/89/10 42/100/10 53/99/10
f 48/78/21 60/90/21 53/99/21 29/75/21
f 112/74/21 125/87/21 58/79/21 46/71/21
f 46/71/21 58/79/21 59/82/21 47/102/21
f 47/102/21 59/82/21 60/90/21 48/78/21
f 49/97/12 29/75/12 53/99/12 55/91/12
f 49/97/12 55/91/12 54/94/12 50/86/12
f 50/86/12 54/94/12 57/95/12 51/83/12
f 51/83/12 57/95/12 56/44/12 52/51/12
f 65/103/22 73/104/22 74/105/22 66/106/22
f 66/106/23 74/105/23 75/107/23 67/108/23
f 67/108/24 75/107/24 76/109/24 68/110/24
f 94/111/25 103/112/25 70/113/25 62/114/25
f 68/110/26 76/109/26 77/14/26 69/13/26
f 62/114/27 70/113/27 71/115/27 63/116/27
f 63/116/28 71/115/28 72/117/28 64/118/28
f 64/118/29 72/117/29 73/104/29 65/103/29
f 79/119/9 68/120/9 69/21/9 78/20/9
f 61/121/9 65/122/9 66/123/9 81/124/9
f 90/125/10 76/126/10 75/127/10 91/128/10
f 84/129/9 62/130/9 63/131/9 83/132/9
f 89/35/10 77/36/10 76/126/10 90/125/10
f 91/128/10 75/127/10 74/133/10 92/134/10
f 87/135/10 72/136/10 71/137/10 86/138/10
f 88/139/10 70/140/10 103/141/10 123/142/10
f 82/143/9 64/144/9 65/122/9 61/121/9
f 85/145/10 73/146/10 72/136/10 87/135/10
f 83/132/9 63/131/9 64/144/9 82/143/9
f 86/138/10 71/137/10 70/140/10 88/139/10
f 119/147/9 94/148/9 62/130/9 84/129/9
f 81/124/9 66/123/9 67/149/9 80/150/9
f 80/150/9 67/149/9 68/120/9 79/119/9
f 92/134/10 74/133/10 73/146/10 85/145/10
f 81/124/11 92/134/11 85/145/11 61/121/11
f 78/20/11 89/35/11 90/125/11 79/119/11
f 79/119/11 90/125/11 91/128/11 80/150/11
f 80/150/11 91/128/11 92/134/11 81/124/11
f 82/143/30 61/121/30 85/145/30 87/135/30
f 82/143/30 87/135/30 86/138/30 83/132/30
f 83/132/30 86/138/30 88/139/30 84/129/30
f 84/129/30 88/139/30 123/142/30 119/147/30
f 98/151/31 99/152/31 108/153/31 107/154/31
f 99/152/32 100/155/32 109/156/32 108/153/32
f 100/155/33 101/157/33 110/158/33 109/156/33
f 94/111/34 95/159/34 104/160/34 103/112/34
f 101/157/35 102/66/35 111/65/35 110/158/35
f 95/159/36 96/161/36 105/162/36 104/160/36
f 96/161/37 97/163/37 106/164/37 105/162/37
f 97/163/38 98/151/38 107/154/38 106/164/38
f 113/165/9 112/74/9 102/73/9 101/166/9
f 93/167/9 115/168/9 99/169/9 98/170/9
f 126/171/10 127/172/10 109/173/10 110/174/10
f 118/175/9 117/176/9 96/177/9 95/178/9
f 125/87/10 126/171/10 110/174/10 111/88/10
f 127/172/10 128/179/10 108/180/10 109/173/10
f 122/181/10 121/182/10 105/183/10 106/184/10
f 124/185/10 123/142/10 103/141/10 104/186/10
f 116/187/9 93/167/9 98/170/9 97/188/9
f 120/189/10 122/181/10 106/184/10 107/190/10
f 117/176/9 116/187/9 97/188/9 96/177/9
f 121/182/10 124/185/10 104/186/10 105/183/10
f 119/147/9 118/175/9 95/178/9 94/148/9
f 115/168/9 114/191/9 100/192/9 99/169/9
f 114/191/9 113/165/9 101/166/9 100/192/9
f 128/179/10 120/189/10 107/190/10 108/180/10
f 115/168/21 93/167/21 120/189/21 128/179/21
f 112/74/21 113/165/21 126/171/21 125/87/21
f 113/165/21 114/191/21 127/172/21 126/171/21
f 114/191/21 115/168/21 128/179/21 127/172/21
f 116/187/30 122/181/30 120/189/30 93/167/30
f 116/187/30 117/176/30 121/182/30 122/181/30
f 117/176/30 118/175/30 124/185/30 121/182/30
f 118/175/30 119/147/30 123/142/30 124/185/30
