# Blender v2.90.1 OBJ File: 'SVG_MAZE.blend'
# www.blender.org
mtllib SM_SVG_Labirinto_1-1_02.mtl
o ParedeDown_Curve.001
v 131.530762 0.002075 8.825272
v 131.530762 10.002074 8.825272
v 127.102760 0.002075 8.825272
v 127.102760 10.002074 8.825272
v 127.102760 10.002074 -6.794304
v 131.530762 10.002074 -6.794304
v 131.530762 0.002075 -6.794304
v 127.102760 0.002075 -6.794304
v 87.120590 0.002075 -6.742028
v 87.120590 10.002074 -6.742028
v 91.548584 10.002074 -6.818325
v 87.120590 10.002074 8.825275
v 91.548584 0.002075 8.825275
v 91.548584 10.002074 8.825275
v 91.548584 0.002075 -6.873682
v 87.120590 0.002075 8.860195
v 31.575333 0.002075 -6.742028
v 31.575333 10.002074 -6.742028
v 27.147327 0.002075 -6.742028
v 27.147327 10.002074 -6.742027
v 27.147327 0.002075 8.825278
v 27.147327 10.002074 8.825278
v 31.575333 10.002074 8.825278
v 31.575333 0.002075 8.825278
v -32.825932 0.002075 8.825279
v -32.825932 10.002074 8.825279
v -32.825932 0.002075 -8.956025
v -32.825932 10.002074 -8.956025
v -28.397924 0.002075 8.825278
v -28.397924 10.002074 8.825278
v -28.397924 0.002075 -8.956026
v -28.397924 10.002074 -8.956026
v -32.825932 10.002074 -6.782418
v -28.397924 10.002074 -6.783683
v -28.397924 0.002075 -6.783683
v -32.825932 0.002075 -6.782418
v -92.799187 0.002075 8.825281
v -92.799187 10.002074 8.825281
v -92.799187 0.002075 -8.956023
v -92.799187 10.002074 -8.956023
v -88.371185 0.002075 8.825281
v -88.371185 10.002074 8.825281
v -88.371185 0.002075 -8.956023
v -88.371185 10.002074 -8.956023
v -88.371185 10.002074 -6.766377
v -92.799187 10.002074 -6.765100
v -92.799187 10.002074 8.567265
v -88.371185 10.002074 8.567265
v -108.362274 0.002075 -6.742020
v -108.362274 10.002074 -6.742020
v -112.790268 0.002075 -6.742020
v -112.790268 10.002074 -6.742020
v -108.362274 0.002075 8.825284
v -112.790268 0.002075 8.825284
v -112.790268 10.002074 8.825284
v -108.362274 10.002074 8.825284
v -148.344437 0.002075 11.039289
v -148.344437 10.002074 11.039289
v -148.344437 10.002074 -6.742018
v -148.344437 0.002075 -6.742018
v -152.772446 10.002074 -6.742018
v -152.772446 0.002075 -6.742018
v -152.772446 0.002075 11.039289
v -152.772446 10.002074 11.039289
v -152.772446 10.002074 8.567265
v -148.344437 10.002074 8.567265
v -172.763535 10.002074 -6.742017
v -172.763535 0.002075 -6.742017
v -172.763535 0.002075 11.039290
v -168.335526 10.002074 -6.743303
v -172.763535 10.002074 11.039290
v -168.335526 10.002074 11.039289
v -168.335526 0.002075 11.039289
v -168.335526 0.002075 -6.743303
vt 0.000000 1.000000
vt 0.000000 0.000000
vt 0.394480 0.000000
vt 0.391470 1.000000
vt 0.000000 1.000000
vt 0.440177 1.000000
vt 0.432865 0.000000
vt 0.000000 0.000000
vt 0.611726 1.000000
vt 1.000000 1.000000
vt 1.000000 0.000000
vt 0.613207 0.000000
vt 0.891182 1.000000
vt 0.500357 1.000000
vt 0.499127 0.000000
vt 0.892566 0.000000
vt 1.000000 0.000000
vt 0.591434 0.000000
vt 0.575589 0.000000
vt 1.000000 0.000000
vt 0.594742 1.000000
vt 0.594742 1.000000
vt 1.000000 1.000000
vt 1.000000 1.000000
vt 0.000000 1.000000
vt 0.877759 1.000000
vt 0.887756 0.000000
vt 0.000000 0.000000
vt 0.000000 1.000000
vt 0.000000 0.000000
vt 0.898283 0.000000
vt 0.877830 1.000000
vt 1.000000 1.000000
vt 1.000000 1.000000
vt 1.000000 0.000000
vt 1.000000 0.000000
vt 0.000000 1.000000
vt 0.014511 1.000000
vt 0.876785 1.000000
vt 1.000000 1.000000
vt 1.000000 0.000000
vt 0.000000 0.000000
vt 0.000000 1.000000
vt 0.000000 0.000000
vt 1.000000 0.000000
vt 1.000000 1.000000
vt 0.876857 1.000000
vt 0.014511 1.000000
vt 0.515854 0.000000
vt 0.519843 0.000000
vt 0.717672 0.000000
vt 0.713293 0.000000
vt 0.517553 1.000000
vt 0.711740 1.000000
vt 0.722115 1.000000
vt 0.517553 1.000000
vt 0.000000 1.000000
vt 0.000000 0.000000
vt 0.412540 0.000000
vt 0.410965 1.000000
vt 0.058572 1.000000
vt 0.000000 1.000000
vt 0.065438 1.000000
vt 0.462489 1.000000
vt 0.473533 0.000000
vt 0.000000 0.000000
vt 0.532343 1.000000
vt 0.459875 0.000000
vt 0.899260 0.000000
vt 0.895113 1.000000
vt 0.509019 0.000000
vt 0.594742 1.000000
vt 1.000000 1.000000
vt 1.000000 0.000000
vn 1.0000 0.0000 0.0000
vn -1.0000 0.0000 0.0000
vn 0.0000 0.0000 1.0000
vn 0.0000 1.0000 0.0000
vn 0.0000 -1.0000 0.0000
vn -0.0000 0.0000 -1.0000
usemtl None
s off
f 2/1/1 1/2/1 7/3/1 6/4/1
f 4/5/2 5/6/2 8/7/2 3/8/2
f 1/2/3 2/1/3 4/5/3 3/8/3
f 2/1/4 6/4/4 5/6/4 4/5/4
f 8/7/5 7/3/5 1/2/5 3/8/5
f 12/9/2 10/10/2 9/11/2 16/12/2
f 11/13/4 10/10/4 12/9/4 14/14/4
f 14/14/1 13/15/1 15/16/1 11/13/1
f 13/15/5 16/12/5 9/11/5 15/16/5
f 17/17/5 24/18/5 21/19/5 19/20/5
f 22/21/4 23/22/4 18/23/4 20/24/4
f 23/22/1 24/18/1 17/17/1 18/23/1
f 21/19/2 22/21/2 20/24/2 19/20/2
f 26/25/2 33/26/2 36/27/2 25/28/2
f 30/29/1 29/30/1 35/31/1 34/32/1
f 28/33/4 33/26/4 34/32/4 32/34/4
f 27/35/6 28/33/6 32/34/6 31/36/6
f 25/28/5 36/27/5 35/31/5 29/30/5
f 35/31/5 36/27/5 27/35/5 31/36/5
f 36/27/2 33/26/2 28/33/2 27/35/2
f 34/32/1 35/31/1 31/36/1 32/34/1
f 34/32/4 33/26/4 26/25/4 30/29/4
f 38/37/2 47/38/2 46/39/2 40/40/2 39/41/2 37/42/2
f 42/43/1 41/44/1 43/45/1 44/46/1 45/47/1 48/48/1
f 38/37/3 37/42/3 41/44/3 42/43/3
f 40/40/4 46/39/4 45/47/4 44/46/4
f 39/41/6 40/40/6 44/46/6 43/45/6
f 37/42/5 39/41/5 43/45/5 41/44/5
f 45/47/4 46/39/4 47/38/4 48/48/4
f 48/48/4 47/38/4 38/37/4 42/43/4
f 53/49/5 54/50/5 51/51/5 49/52/5
f 54/50/2 55/53/2 52/54/2 51/51/2
f 50/55/4 52/54/4 55/53/4 56/56/4
f 56/56/1 53/49/1 49/52/1 50/55/1
f 58/57/1 57/58/1 60/59/1 59/60/1 66/61/1
f 64/62/2 65/63/2 61/64/2 62/65/2 63/66/2
f 57/58/3 58/57/3 64/62/3 63/66/3
f 58/57/4 66/61/4 65/63/4 64/62/4
f 65/63/4 66/61/4 59/60/4 61/64/4
f 62/65/5 60/59/5 57/58/5 63/66/5
f 72/67/1 73/68/1 74/69/1 70/70/1
f 69/71/2 71/72/2 67/73/2 68/74/2
f 70/70/4 67/73/4 71/72/4 72/67/4
f 73/68/5 69/71/5 68/74/5 74/69/5
