# Blender v2.90.1 OBJ File: 'Remesh_Assets.blend'
# www.blender.org
mtllib SM_GramaQuad.mtl
o GramaQuad_Cube.002
v 0.250000 0.500000 -0.250000
v 0.250000 0.000000 -0.250000
v 0.250000 0.500000 0.250000
v 0.250000 0.000000 0.250000
v -0.250000 0.500000 -0.250000
v -0.250000 0.000000 -0.250000
v -0.250000 0.500000 0.250000
v -0.250000 0.000000 0.250000
vt 0.216699 0.699590
vt 0.216699 0.132988
vt 0.783301 0.132988
vt 0.783301 0.699590
vt 0.216699 0.699590
vt 0.216699 0.132988
vt 0.783301 0.132989
vt 0.783301 0.699590
vt 0.216699 0.699591
vt 0.216699 0.132988
vt 0.783301 0.132989
vt 0.783301 0.699591
vt 0.216699 0.699591
vt 0.216699 0.132988
vt 0.783301 0.132988
vt 0.783301 0.699591
vn -1.0000 0.0000 0.0000
vn 0.0000 0.0000 -1.0000
vn 1.0000 0.0000 0.0000
vn 0.0000 0.0000 1.0000
g GramaQuad_Cube.002_Grama
usemtl Grama
s off
f 1/1/1 2/2/1 4/3/1 3/4/1
f 3/5/2 4/6/2 8/7/2 7/8/2
f 7/9/3 8/10/3 6/11/3 5/12/3
f 5/13/4 6/14/4 2/15/4 1/16/4
