# Blender v2.90.1 OBJ File: 'Assets_Labirinto.blend'
# www.blender.org
mtllib SM_Grama_003.mtl
o GramaQuad_Plane.010
v -0.500000 0.700000 0.500000
v -0.152677 0.001470 0.152677
v 0.500000 0.700000 0.500000
v 0.152677 0.001470 0.152677
v -0.500000 0.700000 -0.500000
v -0.152677 0.001470 -0.152677
v 0.500000 0.700000 -0.500000
v 0.152677 0.001470 -0.152677
v 0.000000 1.400000 0.513020
v 0.000000 0.002940 0.156653
v 0.513020 1.400000 0.000000
v 0.156653 0.002940 0.000000
v -0.513020 1.400000 0.000000
v -0.156653 0.002940 0.000000
v 0.000000 1.400000 -0.513020
v 0.000000 0.002940 -0.156653
vt 0.972386 0.930033
vt 0.964114 0.927345
vt 0.969084 0.921826
vt 0.971610 0.922646
vt 0.461536 0.965625
vt 0.455323 0.964521
vt 0.459639 0.952748
vt 0.461536 0.953084
vt 0.969084 0.916973
vt 0.968004 0.919399
vt 0.960576 0.919399
vt 0.964114 0.911454
vt 0.449869 0.961348
vt 0.457974 0.951778
vt 0.456099 0.948479
vt 0.456744 0.950295
vt 0.445841 0.956491
vt 0.443730 0.950544
vt 0.971610 0.916152
vt 0.972386 0.908766
vn -0.8954 -0.4452 0.0000
vn -0.6959 -0.1775 0.6959
vn 0.8954 -0.4452 0.0000
vn 0.0000 -0.4452 -0.8954
vn -0.6959 -0.1775 -0.6959
vn 0.6959 -0.1775 0.6959
vn 0.6959 -0.1775 -0.6959
vn 0.0000 -0.4452 0.8954
usemtl (null)
s off
f 1/1/1 5/2/1 6/3/1 2/4/1
f 9/5/2 13/6/2 14/7/2 10/8/2
f 4/9/3 8/10/3 7/11/3 3/12/3
f 5/2/4 7/11/4 8/10/4 6/3/4
f 13/6/5 15/13/5 16/14/5 14/7/5
f 10/15/6 12/16/6 11/17/6 9/18/6
f 12/16/7 16/14/7 15/13/7 11/17/7
f 2/19/8 4/9/8 3/12/8 1/20/8
