# Blender v2.90.1 OBJ File: 'Assets_Labirinto.blend'
# www.blender.org
mtllib SM_Grama_002.mtl
o GramaGrande_Plane.016
v 1.000000 -0.000000 0.004384
v 1.073312 1.724146 0.018125
v -1.000000 0.000000 -0.008697
v -1.073312 1.724146 -0.034198
v -0.000000 0.013545 -0.004709
v 1.075663 0.855300 0.036668
v 0.000000 2.292178 -0.000067
v -1.075663 0.855300 -0.069080
v 0.000000 1.185633 -0.033089
v -0.500000 2.040933 -0.044250
v -0.500000 0.000000 -0.043022
v -0.500000 1.024883 -0.159654
v 0.500000 -0.000000 0.021688
v 0.500000 2.040933 0.022307
v 0.500000 1.024883 0.080483
v -0.634246 -0.000000 -0.742578
v -0.634247 1.503531 -0.742578
v 0.651329 0.000000 0.789511
v 0.651329 1.503531 0.789511
v 0.034598 0.013545 0.001602
v -0.634247 0.634685 -0.742578
v 0.043078 2.071562 -0.005513
v 0.651329 0.634685 0.789511
v 0.179858 0.965017 -0.120285
v 0.351548 2.013383 0.388353
v 0.331706 0.000000 0.405003
v 0.400343 0.804267 0.347410
v -0.311082 -0.000000 -0.361041
v -0.291240 2.013383 -0.377691
v -0.242445 0.804267 -0.418635
v 0.720253 -0.000000 -0.708168
v 0.781809 1.724146 -0.750291
v -0.703210 0.000000 0.696796
v -0.773081 1.724146 0.730603
v 0.006716 0.013545 -0.007491
v 0.796583 0.855300 -0.738842
v 0.009999 2.292178 -0.004208
v -0.799409 0.855300 0.707601
v -0.013351 1.185633 -0.027559
v -0.374796 2.040933 0.318103
v -0.373929 0.000000 0.318971
v -0.456400 1.024883 0.236500
v 0.378935 -0.000000 -0.342379
v 0.379373 2.040933 -0.341942
v 0.420509 1.024883 -0.300805
vt 0.173185 0.935795
vt 0.164334 0.935883
vt 0.167062 0.930812
vt 0.174667 0.930763
vt 0.182101 0.935840
vt 0.182147 0.931466
vt 0.182117 0.944622
vt 0.173195 0.944676
vt 0.171782 0.940238
vt 0.181977 0.940245
vt 0.164341 0.944628
vt 0.162141 0.940264
vt 0.174682 0.949690
vt 0.167089 0.949660
vt 0.182147 0.948988
vt 0.404007 0.952896
vt 0.393469 0.952858
vt 0.397918 0.948479
vt 0.405526 0.948480
vt 0.411071 0.952904
vt 0.411098 0.948514
vt 0.411071 0.961690
vt 0.404007 0.961698
vt 0.402570 0.957297
vt 0.410913 0.957297
vt 0.393469 0.961736
vt 0.392945 0.957297
vt 0.405526 0.966115
vt 0.397918 0.966115
vt 0.411098 0.966080
vt 0.932448 0.850811
vt 0.923597 0.850899
vt 0.926325 0.845828
vt 0.933930 0.845780
vt 0.941364 0.850857
vt 0.941411 0.846482
vt 0.941380 0.859638
vt 0.932459 0.859692
vt 0.931045 0.855254
vt 0.941240 0.855261
vt 0.923605 0.859644
vt 0.921405 0.855280
vt 0.933945 0.864707
vt 0.926353 0.864676
vt 0.941411 0.864004
vn 0.1201 -0.0791 0.9896
vn 0.0997 0.0972 0.9903
vn -0.1409 -0.0137 0.9899
vn -0.1299 0.0117 0.9915
vn -0.1733 0.0649 0.9827
vn -0.1402 -0.0691 0.9877
vn 0.0589 0.0407 0.9974
vn 0.0488 -0.0503 0.9975
vn 0.8479 0.0303 -0.5293
vn 0.8154 -0.0619 -0.5756
vn 0.6644 -0.1557 -0.7309
vn 0.6430 0.1026 -0.7590
vn 0.8352 -0.1557 -0.5274
vn 0.8591 0.1026 -0.5014
vn 0.6685 0.0303 -0.7431
vn 0.7084 -0.0619 -0.7031
vn 0.7847 -0.0791 0.6148
vn 0.7707 0.0972 0.6298
vn 0.6003 -0.0137 0.7996
vn 0.6092 0.0117 0.7929
vn 0.5723 0.0649 0.8175
vn 0.5993 -0.0691 0.7976
vn 0.7469 0.0407 0.6637
vn 0.7398 -0.0503 0.6709
usemtl (null)
s off
f 12/1/1 10/2/1 4/3/1 8/4/1
f 11/5/2 12/1/2 8/4/2 3/6/2
f 13/7/3 15/8/3 9/9/3 5/10/3
f 15/8/4 14/11/4 7/12/4 9/9/4
f 5/10/5 9/9/5 12/1/5 11/5/5
f 9/9/6 7/12/6 10/2/6 12/1/6
f 6/13/7 2/14/7 14/11/7 15/8/7
f 1/15/8 6/13/8 15/8/8 13/7/8
f 27/16/9 25/17/9 19/18/9 23/19/9
f 26/20/10 27/16/10 23/19/10 18/21/10
f 28/22/11 30/23/11 24/24/11 20/25/11
f 30/23/12 29/26/12 22/27/12 24/24/12
f 20/25/13 24/24/13 27/16/13 26/20/13
f 24/24/14 22/27/14 25/17/14 27/16/14
f 21/28/15 17/29/15 29/26/15 30/23/15
f 16/30/16 21/28/16 30/23/16 28/22/16
f 42/31/17 40/32/17 34/33/17 38/34/17
f 41/35/18 42/31/18 38/34/18 33/36/18
f 43/37/19 45/38/19 39/39/19 35/40/19
f 45/38/20 44/41/20 37/42/20 39/39/20
f 35/40/21 39/39/21 42/31/21 41/35/21
f 39/39/22 37/42/22 40/32/22 42/31/22
f 36/43/23 32/44/23 44/41/23 45/38/23
f 31/45/24 36/43/24 45/38/24 43/37/24
