# Blender v2.90.1 OBJ File: 'Assets_Labirinto.blend'
# www.blender.org
mtllib SM_ChaoConcreto_8x12.mtl
o ChãoConcreto_8x12_Plane.002
v -4.000000 -2.000000 6.000000
v 4.000000 -2.000000 6.000000
v -4.000000 -2.000000 -6.000000
v 4.000000 -2.000000 -6.000000
v -4.000000 0.000000 -6.000000
v -4.000000 0.000000 6.000000
v 4.000000 0.000000 6.000000
v 4.000000 0.000000 -6.000000
vt 0.528659 0.028616
vt 0.602461 0.102418
vt 0.553260 0.151619
vt 0.479458 0.077817
vt 0.688563 0.188520
vt 0.639362 0.237721
vt 0.565560 0.163919
vt 0.614762 0.114718
vt 0.479458 0.225421
vt 0.491759 0.237721
vt 0.676263 0.028616
vt 0.688563 0.040916
vt 0.467158 0.065517
vt 0.516359 0.016316
vn 0.0000 -1.0000 0.0000
vn 0.0000 1.0000 0.0000
vn 1.0000 0.0000 0.0000
vn -1.0000 0.0000 0.0000
vn 0.0000 0.0000 -1.0000
vn 0.0000 0.0000 1.0000
usemtl (null)
s off
f 1/1/1 3/2/1 4/3/1 2/4/1
f 6/5/2 7/6/2 8/7/2 5/8/2
f 2/9/3 4/3/3 8/7/3 7/10/3
f 3/2/4 1/11/4 6/12/4 5/8/4
f 4/3/5 3/2/5 5/8/5 8/7/5
f 1/1/6 2/4/6 7/13/6 6/14/6
