# Blender v2.90.1 OBJ File: 'Assets_Labirinto.blend'
# www.blender.org
mtllib SM_ParedeConcreto_8x12.mtl
o ParedeConcreto_8x12_Cube.008
v -4.000000 0.000000 2.000000
v -4.000000 12.000000 2.000000
v -4.000000 0.000000 -2.000000
v -4.000000 12.000000 -2.000000
v 4.000000 0.000000 2.000000
v 4.000000 12.000000 2.000000
v 4.000000 0.000000 -2.000000
v 4.000000 12.000000 -2.000000
vt 0.860357 0.155478
vt 0.860357 0.259849
vt 0.825566 0.259849
vt 0.825566 0.155478
vt 0.755985 0.259849
vt 0.755985 0.155478
vt 0.721195 0.259849
vt 0.721195 0.155478
vt 0.755985 0.120687
vt 0.755985 0.016316
vt 0.825566 0.016316
vt 0.825566 0.120687
vt 0.825566 0.294640
vt 0.755985 0.294640
vn -1.0000 0.0000 0.0000
vn 0.0000 0.0000 -1.0000
vn 1.0000 0.0000 0.0000
vn 0.0000 0.0000 1.0000
vn 0.0000 -1.0000 0.0000
vn 0.0000 1.0000 0.0000
usemtl (null)
s off
f 1/1/1 2/2/1 4/3/1 3/4/1
f 3/4/2 4/3/2 8/5/2 7/6/2
f 7/6/3 8/5/3 6/7/3 5/8/3
f 5/9/4 6/10/4 2/11/4 1/12/4
f 3/4/5 7/6/5 5/9/5 1/12/5
f 8/5/6 4/3/6 2/13/6 6/14/6
