# Blender v2.90.1 OBJ File: 'Remesh_Assets.blend'
# www.blender.org
mtllib SM_GramaTrapezio.mtl
o GramaTrapeze_GramaQuad_Plane.010
v -0.500000 0.700000 0.500000
v -0.500000 0.700000 -0.500000
v -0.152677 0.001470 -0.152677
v -0.152677 0.001470 0.152677
v 0.000000 1.400000 0.513020
v -0.513020 1.400000 0.000000
v -0.156653 0.002940 0.000000
v 0.000000 0.002940 0.156653
v 0.152677 0.001470 0.152677
v 0.152677 0.001470 -0.152677
v 0.500000 0.700000 -0.500000
v 0.500000 0.700000 0.500000
v 0.000000 1.400000 -0.513020
v 0.000000 0.002940 -0.156653
v 0.156653 0.002940 0.000000
v 0.513020 1.400000 0.000000
vt 0.995450 0.778650
vt 0.010463 0.778650
vt 0.352572 0.064852
vt 0.653341 0.064852
vt 0.972865 0.785242
vt 0.025412 0.785242
vt 0.336601 -0.001692
vt 0.660529 -0.001691
vt 0.352572 0.062342
vt 0.653341 0.062342
vt 0.995450 0.776139
vt 0.010463 0.776139
vt 0.985089 0.778650
vt 0.000102 0.778650
vt 0.342210 0.064852
vt 0.642980 0.064852
vt 0.972865 0.785229
vt 0.025412 0.785229
vt 0.336601 -0.001706
vt 0.660529 -0.001705
vt 0.342075 -0.001692
vt 0.666004 -0.001692
vt 0.977755 0.785241
vt 0.030302 0.785241
vt 0.347338 -0.011695
vt 0.671267 -0.011695
vt 0.982455 0.776307
vt 0.035003 0.776307
vt 0.349444 0.069061
vt 0.650213 0.069061
vt 0.992322 0.782859
vt 0.007335 0.782859
vn -0.8954 -0.4452 -0.0000
vn -0.6959 -0.1775 0.6959
vn 0.8954 -0.4452 -0.0000
vn 0.0000 -0.4452 -0.8954
vn -0.6959 -0.1775 -0.6959
vn 0.6959 -0.1775 0.6959
vn 0.6959 -0.1775 -0.6959
vn 0.0000 -0.4452 0.8954
g GramaTrapeze_GramaQuad_Plane.010_Grama
usemtl Grama
s 1
f 1/1/1 2/2/1 3/3/1 4/4/1
f 5/5/2 6/6/2 7/7/2 8/8/2
f 9/9/3 10/10/3 11/11/3 12/12/3
f 2/13/4 11/14/4 10/15/4 3/16/4
f 6/17/5 13/18/5 14/19/5 7/20/5
f 8/21/6 15/22/6 16/23/6 5/24/6
f 15/25/7 14/26/7 13/27/7 16/28/7
f 4/29/8 9/30/8 12/31/8 1/32/8
