# Blender v2.90.1 OBJ File: 'SVG_MAZE.blend'
# www.blender.org
mtllib SM_SVG_Labirinto_1-1_03.mtl
o ParedeUp_Curve.006
v -192.754639 0.002075 -11.170023
v -192.754639 10.002073 -11.170023
v 211.495117 0.002075 -11.170025
v 211.495117 10.002073 -11.170025
v -192.754639 0.002075 -6.742018
v -192.754639 10.002073 -6.742018
v 211.495117 0.002075 -6.742020
v 211.495117 10.002073 -6.742020
v -192.754639 0.002075 8.825286
v -192.754639 10.002073 8.825286
v 211.495117 0.002075 8.825282
v 211.495117 10.002073 8.825282
v -192.754639 0.002075 13.253291
v -192.754639 10.002073 13.253291
v 211.495117 0.002075 13.253287
v 211.495117 10.002073 13.253287
v -168.335510 10.002073 -11.170023
v -168.335510 0.002075 -11.170023
v -168.335510 10.002073 -6.742018
v -168.335510 0.002075 -6.742018
v -148.344421 10.002073 -11.170023
v -148.344421 0.002075 -11.170023
v -148.344421 10.002073 -6.742018
v -148.344421 0.002075 -6.742018
v -152.772430 10.002073 -11.170023
v -152.772430 0.002075 -11.170023
v -152.772430 10.002073 -6.742018
v -152.772430 0.002075 -6.742018
v -112.790276 10.002073 -11.170023
v -112.790276 0.002075 -11.170023
v -112.790276 10.002073 -6.742018
v -112.790276 0.002075 -6.742018
v -108.362267 10.002073 -11.170023
v -108.362267 0.002075 -11.170023
v -108.362267 10.002073 -6.742018
v -108.362267 0.002075 -6.742018
v -72.808090 10.002073 -11.170023
v -72.808090 0.002075 -11.170023
v -72.808090 10.002073 -6.742018
v -72.808090 0.002075 -6.742018
v -68.380081 10.002073 -11.170023
v -68.380081 0.002075 -11.170023
v -68.380081 10.002073 -6.742018
v -68.380081 0.002075 -6.742018
v -52.817024 10.002073 -11.170023
v -52.817024 0.002075 -11.170023
v -52.817024 10.002073 -6.742018
v -52.817024 0.002075 -6.742018
v -48.389008 10.002073 -11.170023
v -48.389008 0.002075 -11.170023
v -48.389008 10.002073 -6.742018
v -48.389008 0.002075 -6.742018
v -12.834846 10.002073 -11.170023
v -12.834846 0.002075 -11.170023
v -12.834846 10.002073 -6.742018
v -12.834846 0.002075 -6.742018
v -8.406830 10.002073 -11.170023
v -8.406830 0.002075 -11.170023
v -8.406830 10.002073 -6.742018
v -8.406830 0.002075 -6.742018
v 47.138416 10.002073 -11.170024
v 47.138416 0.002075 -11.170024
v 47.138416 10.002073 -6.742019
v 47.138416 0.002075 -6.742019
v 51.566429 10.002073 -11.170024
v 51.566429 0.002075 -11.170024
v 51.566429 10.002073 -6.742019
v 51.566429 0.002075 -6.742019
v 67.129501 10.002073 -11.170024
v 67.129501 0.002075 -11.170024
v 67.129501 10.002073 -6.742019
v 67.129501 0.002075 -6.742019
v 71.557503 10.002073 -11.170024
v 71.557503 0.002075 -11.170024
v 71.557503 10.002073 -6.742019
v 71.557503 0.002075 -6.742019
v 87.120583 10.002073 -11.170024
v 87.120583 0.002075 -11.170024
v 87.120583 10.002073 -6.742019
v 87.120583 0.002075 -6.742019
v 91.548576 10.002073 -11.170024
v 91.548576 0.002075 -11.170024
v 91.548576 10.002073 -6.742019
v 91.548576 0.002075 -6.742019
v 107.111671 10.002073 -11.170024
v 107.111671 0.002075 -11.170024
v 107.111671 10.002073 -6.742019
v 107.111671 0.002075 -6.742019
v 111.539665 10.002073 -11.170024
v 111.539665 0.002075 -11.170024
v 111.539665 10.002073 -6.742019
v 111.539665 0.002075 -6.742019
v 127.102760 10.002073 -11.170024
v 127.102760 0.002075 -11.170024
v 127.102760 10.002073 -6.742019
v 127.102760 0.002075 -6.742019
v 131.530762 10.002073 -11.170024
v 131.530762 0.002075 -11.170024
v 131.530762 10.002073 -6.742019
v 131.530762 0.002075 -6.742019
v 147.093842 10.002073 -11.170024
v 147.093842 0.002075 -11.170024
v 147.093842 10.002073 -6.742019
v 147.093842 0.002075 -6.742019
v 151.521851 10.002073 -11.170024
v 151.521851 0.002075 -11.170024
v 151.521851 10.002073 -6.742019
v 151.521851 0.002075 -6.742019
v 151.521851 10.002073 8.825283
v 151.521851 0.002075 8.825283
v 151.521851 10.002073 13.253288
v 151.521851 0.002075 13.253288
v 147.093842 10.002073 8.825283
v 147.093842 0.002075 8.825283
v 147.093842 10.002073 13.253288
v 147.093842 0.002075 13.253288
v 207.067078 10.002073 8.825282
v 207.067078 0.002075 8.825282
v 207.067078 10.002073 13.253287
v 207.067078 0.002075 13.253287
v 109.325691 10.002073 8.825283
v 109.325691 0.002075 8.825283
v 109.325691 10.002073 13.253288
v 109.325691 0.002075 13.253288
v 91.548576 10.002073 8.825283
v 91.548576 0.002075 8.825283
v 91.548576 10.002073 13.253288
v 91.548576 0.002075 13.253288
v 87.120613 10.002073 8.825283
v 87.120613 0.002075 8.825283
v 87.120613 10.002073 13.253288
v 87.120613 0.002075 13.253288
v 31.575325 10.002073 8.825283
v 31.575325 0.002075 8.825283
v 31.575325 10.002073 13.253288
v 31.575325 0.002075 13.253288
v 27.147324 10.002073 8.825283
v 27.147324 0.002075 8.825283
v 27.147324 10.002073 13.253288
v 27.147324 0.002075 13.253288
v 11.584244 10.002073 8.825283
v 11.584244 0.002075 8.825283
v 11.584244 10.002073 13.253288
v 11.584244 0.002075 13.253288
v 7.156242 10.002073 8.825283
v 7.156242 0.002075 8.825283
v 7.156242 10.002073 13.253288
v 7.156242 0.002075 13.253288
v -48.389011 10.002073 8.825285
v -48.389011 0.002075 8.825285
v -48.389011 10.002073 13.253289
v -48.389011 0.002075 13.253289
v -52.817017 10.002073 8.825285
v -52.817017 0.002075 8.825285
v -52.817017 10.002073 13.253289
v -52.817017 0.002075 13.253289
v -70.594101 10.002073 8.825285
v -70.594101 0.002075 8.825285
v -70.594101 10.002073 13.253289
v -70.594101 0.002075 13.253289
v -108.362274 10.002073 8.825285
v -108.362274 0.002075 8.825285
v -108.362274 10.002073 13.253290
v -108.362274 0.002075 13.253290
v -112.790268 10.002073 8.825285
v -112.790268 0.002075 8.825285
v -112.790268 10.002073 13.253290
v -112.790268 0.002075 13.253290
v -128.353363 10.002073 8.825285
v -128.353363 0.002075 8.825285
v -128.353363 10.002073 13.253290
v -128.353363 0.002075 13.253290
v -132.781342 10.002073 8.825285
v -132.781342 0.002075 8.825285
v -132.781342 10.002073 13.253290
v -132.781342 0.002075 13.253290
v -168.335510 10.002073 8.825285
v -168.335510 0.002075 8.825285
v -168.335510 10.002073 13.253291
v -168.335510 0.002075 13.253291
v -172.763550 10.002073 8.825285
v -172.763550 0.002075 8.825285
v -172.763550 10.002073 13.253291
v -172.763550 0.002075 13.253291
v -188.326630 10.002073 8.825286
v -188.326630 0.002075 8.825286
v -188.326630 10.002073 13.253291
v -188.326630 0.002075 13.253291
vt 0.851643 1.000000
vt 1.000000 1.000000
vt 1.000000 0.000000
vt 0.851643 0.000000
vt 0.851643 1.000000
vt 0.851643 0.000000
vt 1.000000 0.000000
vt 1.000000 1.000000
vt 0.060406 1.000000
vt 0.000000 1.000000
vt 0.000000 1.000000
vt 0.060406 1.000000
vt 0.000000 0.000000
vt 0.000000 0.000000
vt 0.989046 1.000000
vt 1.000000 1.000000
vt 1.000000 0.000000
vt 0.989046 0.000000
vt 0.989046 1.000000
vt 0.989046 0.000000
vt 1.000000 0.000000
vt 1.000000 1.000000
vt 0.010954 1.000000
vt 0.000000 1.000000
vt 0.000000 1.000000
vt 0.010954 1.000000
vt 0.000000 0.000000
vt 0.000000 0.000000
vt 0.060406 0.000000
vt 0.060406 0.000000
vt 0.098905 1.000000
vt 0.098905 1.000000
vt 0.197809 1.000000
vt 0.109858 1.000000
vt 0.109858 1.000000
vt 0.197809 1.000000
vt 0.098905 0.000000
vt 0.109858 0.000000
vt 0.109858 0.000000
vt 0.098905 0.000000
vt 0.208763 1.000000
vt 0.208763 1.000000
vt 0.197809 0.000000
vt 0.197809 0.000000
vt 0.296714 1.000000
vt 0.296714 1.000000
vt 0.208763 0.000000
vt 0.208763 0.000000
vt 0.307668 1.000000
vt 0.307668 1.000000
vt 0.296714 0.000000
vt 0.296714 0.000000
vt 0.346166 1.000000
vt 0.346166 1.000000
vt 0.307668 0.000000
vt 0.307668 0.000000
vt 0.357120 1.000000
vt 0.357120 1.000000
vt 0.346166 0.000000
vt 0.346166 0.000000
vt 0.445071 1.000000
vt 0.445071 1.000000
vt 0.357120 0.000000
vt 0.357120 0.000000
vt 0.456025 1.000000
vt 0.456025 1.000000
vt 0.445071 0.000000
vt 0.445071 0.000000
vt 0.593428 1.000000
vt 0.593428 1.000000
vt 0.456025 0.000000
vt 0.456025 0.000000
vt 0.604381 1.000000
vt 0.604382 1.000000
vt 0.593428 0.000000
vt 0.593428 0.000000
vt 0.642880 1.000000
vt 0.642880 1.000000
vt 0.604381 0.000000
vt 0.604382 0.000000
vt 0.653834 1.000000
vt 0.653834 1.000000
vt 0.642880 0.000000
vt 0.642880 0.000000
vt 0.692332 1.000000
vt 0.692333 1.000000
vt 0.653834 0.000000
vt 0.653834 0.000000
vt 0.703286 1.000000
vt 0.703286 1.000000
vt 0.692332 0.000000
vt 0.692333 0.000000
vt 0.741785 1.000000
vt 0.741785 1.000000
vt 0.703286 0.000000
vt 0.703286 0.000000
vt 0.752738 1.000000
vt 0.752739 1.000000
vt 0.741785 0.000000
vt 0.741785 0.000000
vt 0.791237 1.000000
vt 0.791237 1.000000
vt 0.752738 0.000000
vt 0.752738 0.000000
vt 0.802191 1.000000
vt 0.802191 1.000000
vt 0.791237 0.000000
vt 0.791237 0.000000
vt 0.840689 1.000000
vt 0.840690 1.000000
vt 0.802191 0.000000
vt 0.802191 0.000000
vt 0.840689 0.000000
vt 0.840689 0.000000
vt 0.840689 0.000000
vt 0.851643 0.000000
vt 0.851643 0.000000
vt 0.840689 0.000000
vt 0.851643 1.000000
vt 0.851643 1.000000
vt 0.840689 1.000000
vt 0.840689 1.000000
vt 0.747262 1.000000
vt 0.747262 0.000000
vt 0.747262 1.000000
vt 0.747262 0.000000
vt 0.703286 0.000000
vt 0.703286 0.000000
vt 0.703286 1.000000
vt 0.703286 1.000000
vt 0.692333 1.000000
vt 0.692333 0.000000
vt 0.692333 1.000000
vt 0.692333 0.000000
vt 0.554929 0.000000
vt 0.554929 0.000000
vt 0.554929 1.000000
vt 0.554929 1.000000
vt 0.543975 1.000000
vt 0.543975 0.000000
vt 0.543976 1.000000
vt 0.543976 0.000000
vt 0.505477 0.000000
vt 0.505477 0.000000
vt 0.505477 1.000000
vt 0.505477 1.000000
vt 0.494523 1.000000
vt 0.494523 0.000000
vt 0.494523 1.000000
vt 0.494523 0.000000
vt 0.357120 0.000000
vt 0.357120 0.000000
vt 0.357120 1.000000
vt 0.357120 1.000000
vt 0.346166 1.000000
vt 0.346166 0.000000
vt 0.346166 1.000000
vt 0.346166 0.000000
vt 0.302191 0.000000
vt 0.302191 0.000000
vt 0.302191 1.000000
vt 0.302191 1.000000
vt 0.208763 1.000000
vt 0.208763 0.000000
vt 0.208763 1.000000
vt 0.208763 0.000000
vt 0.197809 0.000000
vt 0.197809 0.000000
vt 0.197809 1.000000
vt 0.197809 1.000000
vt 0.159311 1.000000
vt 0.159311 0.000000
vt 0.159311 1.000000
vt 0.159311 0.000000
vt 0.148357 0.000000
vt 0.148357 0.000000
vt 0.148357 1.000000
vt 0.148357 1.000000
vt 0.060406 1.000000
vt 0.060406 0.000000
vt 0.060406 1.000000
vt 0.060406 0.000000
vt 0.049452 0.000000
vt 0.049452 0.000000
vt 0.049452 1.000000
vt 0.049452 1.000000
vt 0.010954 0.000000
vt 0.010954 0.000000
vn -0.0000 0.0000 -1.0000
vn 0.0000 0.0000 1.0000
vn 0.0000 1.0000 0.0000
vn 0.0000 -1.0000 0.0000
vn -1.0000 0.0000 0.0000
vn 1.0000 0.0000 0.0000
usemtl None
s off
f 105/1/1 4/2/1 3/3/1 106/4/1
f 107/5/2 108/6/2 7/7/2 8/8/2
f 17/9/3 2/10/3 6/11/3 19/12/3
f 106/4/4 3/3/4 7/7/4 108/6/4
f 2/10/5 1/13/5 5/14/5 6/11/5
f 4/2/6 8/8/6 7/7/6 3/3/6
f 117/15/1 12/16/1 11/17/1 118/18/1
f 119/19/2 120/20/2 15/21/2 16/22/2
f 185/23/3 10/24/3 14/25/3 187/26/3
f 118/18/4 11/17/4 15/21/4 120/20/4
f 10/24/5 9/27/5 13/28/5 14/25/5
f 12/16/6 16/22/6 15/21/6 11/17/6
f 1/13/4 18/29/4 20/30/4 5/14/4
f 25/31/3 17/9/3 19/12/3 27/32/3
f 6/11/2 5/14/2 20/30/2 19/12/2
f 2/10/1 17/9/1 18/29/1 1/13/1
f 29/33/3 21/34/3 23/35/3 31/36/3
f 26/37/4 22/38/4 24/39/4 28/40/4
f 27/32/2 28/40/2 24/39/2 23/35/2
f 25/31/1 21/34/1 22/38/1 26/37/1
f 17/9/1 25/31/1 26/37/1 18/29/1
f 19/12/2 20/30/2 28/40/2 27/32/2
f 18/29/4 26/37/4 28/40/4 20/30/4
f 21/34/3 25/31/3 27/32/3 23/35/3
f 33/41/3 29/33/3 31/36/3 35/42/3
f 22/38/4 30/43/4 32/44/4 24/39/4
f 23/35/2 24/39/2 32/44/2 31/36/2
f 21/34/1 29/33/1 30/43/1 22/38/1
f 37/45/3 33/41/3 35/42/3 39/46/3
f 30/43/4 34/47/4 36/48/4 32/44/4
f 31/36/2 32/44/2 36/48/2 35/42/2
f 29/33/1 33/41/1 34/47/1 30/43/1
f 41/49/3 37/45/3 39/46/3 43/50/3
f 34/47/4 38/51/4 40/52/4 36/48/4
f 35/42/2 36/48/2 40/52/2 39/46/2
f 33/41/1 37/45/1 38/51/1 34/47/1
f 45/53/3 41/49/3 43/50/3 47/54/3
f 38/51/4 42/55/4 44/56/4 40/52/4
f 39/46/2 40/52/2 44/56/2 43/50/2
f 37/45/1 41/49/1 42/55/1 38/51/1
f 49/57/3 45/53/3 47/54/3 51/58/3
f 42/55/4 46/59/4 48/60/4 44/56/4
f 43/50/2 44/56/2 48/60/2 47/54/2
f 41/49/1 45/53/1 46/59/1 42/55/1
f 53/61/3 49/57/3 51/58/3 55/62/3
f 46/59/4 50/63/4 52/64/4 48/60/4
f 47/54/2 48/60/2 52/64/2 51/58/2
f 45/53/1 49/57/1 50/63/1 46/59/1
f 57/65/3 53/61/3 55/62/3 59/66/3
f 50/63/4 54/67/4 56/68/4 52/64/4
f 51/58/2 52/64/2 56/68/2 55/62/2
f 49/57/1 53/61/1 54/67/1 50/63/1
f 61/69/3 57/65/3 59/66/3 63/70/3
f 54/67/4 58/71/4 60/72/4 56/68/4
f 55/62/2 56/68/2 60/72/2 59/66/2
f 53/61/1 57/65/1 58/71/1 54/67/1
f 65/73/3 61/69/3 63/70/3 67/74/3
f 58/71/4 62/75/4 64/76/4 60/72/4
f 59/66/2 60/72/2 64/76/2 63/70/2
f 57/65/1 61/69/1 62/75/1 58/71/1
f 69/77/3 65/73/3 67/74/3 71/78/3
f 62/75/4 66/79/4 68/80/4 64/76/4
f 63/70/2 64/76/2 68/80/2 67/74/2
f 61/69/1 65/73/1 66/79/1 62/75/1
f 73/81/3 69/77/3 71/78/3 75/82/3
f 66/79/4 70/83/4 72/84/4 68/80/4
f 67/74/2 68/80/2 72/84/2 71/78/2
f 65/73/1 69/77/1 70/83/1 66/79/1
f 77/85/3 73/81/3 75/82/3 79/86/3
f 70/83/4 74/87/4 76/88/4 72/84/4
f 71/78/2 72/84/2 76/88/2 75/82/2
f 69/77/1 73/81/1 74/87/1 70/83/1
f 81/89/3 77/85/3 79/86/3 83/90/3
f 74/87/4 78/91/4 80/92/4 76/88/4
f 75/82/2 76/88/2 80/92/2 79/86/2
f 73/81/1 77/85/1 78/91/1 74/87/1
f 85/93/3 81/89/3 83/90/3 87/94/3
f 78/91/4 82/95/4 84/96/4 80/92/4
f 79/86/2 80/92/2 84/96/2 83/90/2
f 77/85/1 81/89/1 82/95/1 78/91/1
f 89/97/3 85/93/3 87/94/3 91/98/3
f 82/95/4 86/99/4 88/100/4 84/96/4
f 83/90/2 84/96/2 88/100/2 87/94/2
f 81/89/1 85/93/1 86/99/1 82/95/1
f 93/101/3 89/97/3 91/98/3 95/102/3
f 86/99/4 90/103/4 92/104/4 88/100/4
f 87/94/2 88/100/2 92/104/2 91/98/2
f 85/93/1 89/97/1 90/103/1 86/99/1
f 97/105/3 93/101/3 95/102/3 99/106/3
f 90/103/4 94/107/4 96/108/4 92/104/4
f 91/98/2 92/104/2 96/108/2 95/102/2
f 89/97/1 93/101/1 94/107/1 90/103/1
f 101/109/3 97/105/3 99/106/3 103/110/3
f 94/107/4 98/111/4 100/112/4 96/108/4
f 95/102/2 96/108/2 100/112/2 99/106/2
f 93/101/1 97/105/1 98/111/1 94/107/1
f 105/1/3 101/109/3 103/110/3 107/5/3
f 98/111/4 102/113/4 104/114/4 100/112/4
f 99/106/2 100/112/2 104/114/2 103/110/2
f 97/105/1 101/109/1 102/113/1 98/111/1
f 4/2/3 105/1/3 107/5/3 8/8/3
f 102/113/4 106/4/4 108/6/4 104/114/4
f 103/110/2 104/114/2 108/6/2 107/5/2
f 101/109/1 105/1/1 106/4/1 102/113/1
f 114/115/4 110/116/4 112/117/4 116/118/4
f 117/15/3 109/119/3 111/120/3 119/19/3
f 115/121/2 116/118/2 112/117/2 111/120/2
f 113/122/1 109/119/1 110/116/1 114/115/1
f 121/123/1 113/122/1 114/115/1 122/124/1
f 123/125/2 124/126/2 116/118/2 115/121/2
f 122/124/4 114/115/4 116/118/4 124/126/4
f 109/119/3 113/122/3 115/121/3 111/120/3
f 12/16/3 117/15/3 119/19/3 16/22/3
f 110/116/4 118/18/4 120/20/4 112/117/4
f 111/120/2 112/117/2 120/20/2 119/19/2
f 109/119/1 117/15/1 118/18/1 110/116/1
f 126/127/4 122/124/4 124/126/4 128/128/4
f 127/129/2 128/128/2 124/126/2 123/125/2
f 125/130/1 121/123/1 122/124/1 126/127/1
f 113/122/3 121/123/3 123/125/3 115/121/3
f 129/131/1 125/130/1 126/127/1 130/132/1
f 131/133/2 132/134/2 128/128/2 127/129/2
f 130/132/4 126/127/4 128/128/4 132/134/4
f 121/123/3 125/130/3 127/129/3 123/125/3
f 134/135/4 130/132/4 132/134/4 136/136/4
f 135/137/2 136/136/2 132/134/2 131/133/2
f 133/138/1 129/131/1 130/132/1 134/135/1
f 125/130/3 129/131/3 131/133/3 127/129/3
f 137/139/1 133/138/1 134/135/1 138/140/1
f 139/141/2 140/142/2 136/136/2 135/137/2
f 138/140/4 134/135/4 136/136/4 140/142/4
f 129/131/3 133/138/3 135/137/3 131/133/3
f 142/143/4 138/140/4 140/142/4 144/144/4
f 143/145/2 144/144/2 140/142/2 139/141/2
f 141/146/1 137/139/1 138/140/1 142/143/1
f 133/138/3 137/139/3 139/141/3 135/137/3
f 145/147/1 141/146/1 142/143/1 146/148/1
f 147/149/2 148/150/2 144/144/2 143/145/2
f 146/148/4 142/143/4 144/144/4 148/150/4
f 137/139/3 141/146/3 143/145/3 139/141/3
f 150/151/4 146/148/4 148/150/4 152/152/4
f 151/153/2 152/152/2 148/150/2 147/149/2
f 149/154/1 145/147/1 146/148/1 150/151/1
f 141/146/3 145/147/3 147/149/3 143/145/3
f 153/155/1 149/154/1 150/151/1 154/156/1
f 155/157/2 156/158/2 152/152/2 151/153/2
f 154/156/4 150/151/4 152/152/4 156/158/4
f 145/147/3 149/154/3 151/153/3 147/149/3
f 158/159/4 154/156/4 156/158/4 160/160/4
f 159/161/2 160/160/2 156/158/2 155/157/2
f 157/162/1 153/155/1 154/156/1 158/159/1
f 149/154/3 153/155/3 155/157/3 151/153/3
f 161/163/1 157/162/1 158/159/1 162/164/1
f 163/165/2 164/166/2 160/160/2 159/161/2
f 162/164/4 158/159/4 160/160/4 164/166/4
f 153/155/3 157/162/3 159/161/3 155/157/3
f 166/167/4 162/164/4 164/166/4 168/168/4
f 167/169/2 168/168/2 164/166/2 163/165/2
f 165/170/1 161/163/1 162/164/1 166/167/1
f 157/162/3 161/163/3 163/165/3 159/161/3
f 169/171/1 165/170/1 166/167/1 170/172/1
f 171/173/2 172/174/2 168/168/2 167/169/2
f 170/172/4 166/167/4 168/168/4 172/174/4
f 161/163/3 165/170/3 167/169/3 163/165/3
f 174/175/4 170/172/4 172/174/4 176/176/4
f 175/177/2 176/176/2 172/174/2 171/173/2
f 173/178/1 169/171/1 170/172/1 174/175/1
f 165/170/3 169/171/3 171/173/3 167/169/3
f 177/179/1 173/178/1 174/175/1 178/180/1
f 179/181/2 180/182/2 176/176/2 175/177/2
f 178/180/4 174/175/4 176/176/4 180/182/4
f 169/171/3 173/178/3 175/177/3 171/173/3
f 182/183/4 178/180/4 180/182/4 184/184/4
f 183/185/2 184/184/2 180/182/2 179/181/2
f 181/186/1 177/179/1 178/180/1 182/183/1
f 173/178/3 177/179/3 179/181/3 175/177/3
f 185/23/1 181/186/1 182/183/1 186/187/1
f 187/26/2 188/188/2 184/184/2 183/185/2
f 186/187/4 182/183/4 184/184/4 188/188/4
f 177/179/3 181/186/3 183/185/3 179/181/3
f 9/27/4 186/187/4 188/188/4 13/28/4
f 14/25/2 13/28/2 188/188/2 187/26/2
f 10/24/1 185/23/1 186/187/1 9/27/1
f 181/186/3 185/23/3 187/26/3 183/185/3
