# Blender v2.90.1 OBJ File: 'Assets_Labirinto.blend'
# www.blender.org
mtllib SM_ChaoConcreto_16x24.mtl
o ChãoConcreto_16x24_Plane.005
v -8.000000 -2.000000 12.000000
v 8.000000 -2.000000 12.000000
v -8.000000 -2.000000 -12.000000
v 8.000000 -2.000000 -12.000000
v -8.000000 0.000000 -12.000000
v -8.000000 0.000000 12.000000
v 8.000000 0.000000 12.000000
v 8.000000 0.000000 -12.000000
vt 0.127018 0.028616
vt 0.274622 0.176219
vt 0.176220 0.274622
vt 0.028616 0.127019
vt 0.434526 0.336122
vt 0.336124 0.434525
vt 0.188520 0.286922
vt 0.286922 0.188519
vt 0.028617 0.422226
vt 0.040917 0.434526
vt 0.422226 0.028615
vt 0.434526 0.040915
vt 0.016316 0.114718
vt 0.114718 0.016316
vn 0.0000 -1.0000 0.0000
vn 0.0000 1.0000 0.0000
vn 1.0000 0.0000 0.0000
vn -1.0000 0.0000 0.0000
vn 0.0000 0.0000 -1.0000
vn 0.0000 0.0000 1.0000
usemtl (null)
s off
f 1/1/1 3/2/1 4/3/1 2/4/1
f 6/5/2 7/6/2 8/7/2 5/8/2
f 2/9/3 4/3/3 8/7/3 7/10/3
f 3/2/4 1/11/4 6/12/4 5/8/4
f 4/3/5 3/2/5 5/8/5 8/7/5
f 1/1/6 2/4/6 7/13/6 6/14/6
