# Blender v2.90.1 OBJ File: 'Assets_Labirinto.blend'
# www.blender.org
mtllib SM_CircleChao.mtl
o CircleChão_Circle
v 0.000000 0.060788 0.000001
v 0.000000 0.060788 -3.999999
v -0.780361 0.060788 -3.923140
v -1.530733 0.060788 -3.695517
v -2.222281 0.060788 -3.325877
v -2.828427 0.060788 -2.828426
v -3.325878 0.060788 -2.222280
v -3.695518 0.060788 -1.530733
v -3.923141 0.060788 -0.780360
v -4.000000 0.060788 0.000001
v -3.923141 0.060788 0.780362
v -3.695518 0.060788 1.530734
v -3.325878 0.060788 2.222282
v -2.828427 0.060788 2.828428
v -2.222280 0.060788 3.325880
v -1.530733 0.060788 3.695520
v -0.780360 0.060788 3.923142
v 0.000002 0.060788 4.000001
v 0.780363 0.060788 3.923142
v 1.530736 0.060788 3.695518
v 2.222283 0.060788 3.325878
v 2.828429 0.060788 2.828427
v 3.325881 0.060788 2.222280
v 3.695520 0.060788 1.530732
v 3.923142 0.060788 0.780359
v 4.000000 0.060788 -0.000003
v 3.923141 0.060788 -0.780364
v 3.695517 0.060788 -1.530737
v 3.325876 0.060788 -2.222284
v 2.828424 0.060788 -2.828429
v 2.222277 0.060788 -3.325880
v 1.530729 0.060788 -3.695519
v 0.780356 0.060788 -3.923141
v -0.780361 -0.060788 -3.923140
v 0.000000 -0.060788 -3.999999
v 0.000000 -0.060788 0.000001
v -1.530733 -0.060788 -3.695517
v -2.222281 -0.060788 -3.325877
v -2.828427 -0.060788 -2.828426
v -3.325878 -0.060788 -2.222280
v -3.695518 -0.060788 -1.530733
v -3.923141 -0.060788 -0.780360
v -4.000000 -0.060788 0.000001
v -3.923141 -0.060788 0.780362
v -3.695518 -0.060788 1.530734
v -3.325878 -0.060788 2.222282
v -2.828427 -0.060788 2.828428
v -2.222280 -0.060788 3.325880
v -1.530733 -0.060788 3.695520
v -0.780360 -0.060788 3.923142
v 0.000002 -0.060788 4.000001
v 0.780363 -0.060788 3.923142
v 1.530736 -0.060788 3.695518
v 2.222283 -0.060788 3.325878
v 2.828429 -0.060788 2.828427
v 3.325881 -0.060788 2.222280
v 3.695520 -0.060788 1.530732
v 3.923142 -0.060788 0.780359
v 4.000000 -0.060788 -0.000003
v 3.923141 -0.060788 -0.780364
v 3.695517 -0.060788 -1.530737
v 3.325876 -0.060788 -2.222284
v 2.828424 -0.060788 -2.828429
v 2.222277 -0.060788 -3.325880
v 1.530729 -0.060788 -3.695519
v 0.780356 -0.060788 -3.923141
vt 0.891299 0.364813
vt 0.874899 0.334131
vt 0.881200 0.331521
vt 0.869228 0.337920
vt 0.864406 0.342743
vt 0.860617 0.348414
vt 0.858007 0.354715
vt 0.856676 0.361404
vt 0.856676 0.368224
vt 0.858007 0.374913
vt 0.860617 0.381214
vt 0.864406 0.386885
vt 0.869228 0.391707
vt 0.874899 0.395496
vt 0.881200 0.398106
vt 0.887889 0.399437
vt 0.894709 0.399437
vt 0.901398 0.398106
vt 0.907699 0.395496
vt 0.913370 0.391707
vt 0.918193 0.386885
vt 0.921982 0.381214
vt 0.924592 0.374913
vt 0.925922 0.368224
vt 0.925922 0.361404
vt 0.924592 0.354715
vt 0.921982 0.348414
vt 0.918193 0.342743
vt 0.913370 0.337920
vt 0.907699 0.334131
vt 0.901398 0.331521
vt 0.894709 0.330191
vt 0.887889 0.330191
vt 0.427568 0.881225
vt 0.462191 0.877814
vt 0.462191 0.884635
vt 0.460861 0.891324
vt 0.458251 0.897625
vt 0.454462 0.903295
vt 0.449639 0.908118
vt 0.443969 0.911907
vt 0.437668 0.914517
vt 0.430979 0.915848
vt 0.424158 0.915848
vt 0.417469 0.914517
vt 0.411168 0.911907
vt 0.405498 0.908118
vt 0.400675 0.903296
vt 0.396886 0.897625
vt 0.394276 0.891324
vt 0.392945 0.884635
vt 0.392945 0.877815
vt 0.394276 0.871126
vt 0.396885 0.864825
vt 0.400675 0.859154
vt 0.405497 0.854332
vt 0.411168 0.850542
vt 0.417469 0.847932
vt 0.424158 0.846602
vt 0.430978 0.846602
vt 0.437667 0.847932
vt 0.443968 0.850542
vt 0.449639 0.854331
vt 0.454461 0.859154
vt 0.458250 0.864825
vt 0.460860 0.871125
vt 0.882818 0.576282
vt 0.882818 0.583102
vt 0.881760 0.583102
vt 0.881760 0.576282
vt 0.882818 0.664945
vt 0.882818 0.671766
vt 0.881760 0.671766
vt 0.881760 0.664945
vt 0.882818 0.494439
vt 0.882818 0.501259
vt 0.881760 0.501259
vt 0.881760 0.494439
vt 0.882818 0.542181
vt 0.882818 0.549001
vt 0.881760 0.549001
vt 0.881760 0.542181
vt 0.882818 0.624024
vt 0.882818 0.630844
vt 0.881760 0.630844
vt 0.881760 0.624024
vt 0.882818 0.678586
vt 0.881760 0.678586
vt 0.882818 0.508079
vt 0.881760 0.508079
vt 0.882818 0.589923
vt 0.881760 0.589923
vt 0.882818 0.555821
vt 0.881760 0.555821
vt 0.882818 0.637664
vt 0.881760 0.637664
vt 0.882818 0.685406
vt 0.881760 0.685406
vt 0.882818 0.514900
vt 0.881760 0.514900
vt 0.882818 0.596743
vt 0.881760 0.596743
vt 0.882818 0.562642
vt 0.881760 0.562642
vt 0.882818 0.644485
vt 0.881760 0.644485
vt 0.882818 0.467158
vt 0.882818 0.473978
vt 0.881760 0.473978
vt 0.881760 0.467158
vt 0.882818 0.521720
vt 0.881760 0.521720
vt 0.882818 0.603563
vt 0.881760 0.603563
vt 0.882818 0.569462
vt 0.881760 0.569462
vt 0.882818 0.651305
vt 0.881760 0.651305
vt 0.882818 0.480798
vt 0.881760 0.480798
vt 0.882818 0.528540
vt 0.881760 0.528540
vt 0.882818 0.610383
vt 0.881760 0.610383
vt 0.882818 0.658125
vt 0.881760 0.658125
vt 0.882818 0.487618
vt 0.881760 0.487618
vt 0.882818 0.535361
vt 0.881760 0.535361
vt 0.882818 0.617204
vt 0.881760 0.617204
vn 0.0000 -1.0000 0.0000
vn 0.0000 1.0000 0.0000
vn 0.0980 0.0000 0.9952
vn 0.4714 0.0000 -0.8819
vn -0.7730 0.0000 -0.6344
vn -0.7730 0.0000 0.6344
vn 0.9952 0.0000 0.0980
vn 0.2903 0.0000 -0.9569
vn -0.8819 0.0000 -0.4714
vn 0.2903 0.0000 0.9569
vn -0.6344 0.0000 0.7730
vn 0.9952 0.0000 -0.0980
vn 0.0980 0.0000 -0.9952
vn -0.9569 0.0000 -0.2903
vn 0.4714 0.0000 0.8819
vn -0.4714 0.0000 0.8819
vn 0.9569 0.0000 -0.2903
vn -0.0980 0.0000 -0.9952
vn -0.9952 0.0000 -0.0980
vn 0.6344 0.0000 0.7730
vn -0.2903 0.0000 0.9569
vn 0.8819 0.0000 -0.4714
vn -0.2903 0.0000 -0.9569
vn -0.9952 0.0000 0.0980
vn 0.7730 0.0000 0.6344
vn -0.0980 0.0000 0.9952
vn 0.7730 0.0000 -0.6344
vn -0.4714 0.0000 -0.8819
vn -0.9569 0.0000 0.2903
vn 0.8819 0.0000 0.4714
vn 0.6344 0.0000 -0.7730
vn -0.6344 0.0000 -0.7730
vn -0.8819 0.0000 0.4714
vn 0.9569 0.0000 0.2903
usemtl (null)
s off
f 1/1/1 3/2/1 2/3/1
f 1/1/1 4/4/1 3/2/1
f 1/1/1 5/5/1 4/4/1
f 1/1/1 6/6/1 5/5/1
f 1/1/1 7/7/1 6/6/1
f 1/1/1 8/8/1 7/7/1
f 1/1/1 9/9/1 8/8/1
f 1/1/1 10/10/1 9/9/1
f 1/1/1 11/11/1 10/10/1
f 1/1/1 12/12/1 11/11/1
f 1/1/1 13/13/1 12/12/1
f 1/1/1 14/14/1 13/13/1
f 1/1/1 15/15/1 14/14/1
f 1/1/1 16/16/1 15/15/1
f 1/1/1 17/17/1 16/16/1
f 1/1/1 18/18/1 17/17/1
f 1/1/1 19/19/1 18/18/1
f 1/1/1 20/20/1 19/19/1
f 1/1/1 21/21/1 20/20/1
f 1/1/1 22/22/1 21/21/1
f 1/1/1 23/23/1 22/22/1
f 1/1/1 24/24/1 23/23/1
f 1/1/1 25/25/1 24/24/1
f 1/1/1 26/26/1 25/25/1
f 1/1/1 27/27/1 26/26/1
f 1/1/1 28/28/1 27/27/1
f 1/1/1 29/29/1 28/28/1
f 1/1/1 30/30/1 29/29/1
f 1/1/1 31/31/1 30/30/1
f 1/1/1 32/32/1 31/31/1
f 1/1/1 33/33/1 32/32/1
f 1/1/1 2/3/1 33/33/1
f 36/34/2 35/35/2 34/36/2
f 36/34/2 34/36/2 37/37/2
f 36/34/2 37/37/2 38/38/2
f 36/34/2 38/38/2 39/39/2
f 36/34/2 39/39/2 40/40/2
f 36/34/2 40/40/2 41/41/2
f 36/34/2 41/41/2 42/42/2
f 36/34/2 42/42/2 43/43/2
f 36/34/2 43/43/2 44/44/2
f 36/34/2 44/44/2 45/45/2
f 36/34/2 45/45/2 46/46/2
f 36/34/2 46/46/2 47/47/2
f 36/34/2 47/47/2 48/48/2
f 36/34/2 48/48/2 49/49/2
f 36/34/2 49/49/2 50/50/2
f 36/34/2 50/50/2 51/51/2
f 36/34/2 51/51/2 52/52/2
f 36/34/2 52/52/2 53/53/2
f 36/34/2 53/53/2 54/54/2
f 36/34/2 54/54/2 55/55/2
f 36/34/2 55/55/2 56/56/2
f 36/34/2 56/56/2 57/57/2
f 36/34/2 57/57/2 58/58/2
f 36/34/2 58/58/2 59/59/2
f 36/34/2 59/59/2 60/60/2
f 36/34/2 60/60/2 61/61/2
f 36/34/2 61/61/2 62/62/2
f 36/34/2 62/62/2 63/63/2
f 36/34/2 63/63/2 64/64/2
f 36/34/2 64/64/2 65/65/2
f 36/34/2 65/65/2 66/66/2
f 36/34/2 66/66/2 35/35/2
f 2/67/3 3/68/3 34/69/3 35/70/3
f 15/71/4 16/72/4 49/73/4 48/74/4
f 22/75/5 23/76/5 56/77/5 55/78/5
f 29/79/6 30/80/6 63/81/6 62/82/6
f 9/83/7 10/84/7 43/85/7 42/86/7
f 16/72/8 17/87/8 50/88/8 49/73/8
f 23/76/9 24/89/9 57/90/9 56/77/9
f 3/68/10 4/91/10 37/92/10 34/69/10
f 30/80/11 31/93/11 64/94/11 63/81/11
f 10/84/12 11/95/12 44/96/12 43/85/12
f 17/87/13 18/97/13 51/98/13 50/88/13
f 24/89/14 25/99/14 58/100/14 57/90/14
f 4/91/15 5/101/15 38/102/15 37/92/15
f 31/93/16 32/103/16 65/104/16 64/94/16
f 11/95/17 12/105/17 45/106/17 44/96/17
f 18/107/18 19/108/18 52/109/18 51/110/18
f 25/99/19 26/111/19 59/112/19 58/100/19
f 5/101/20 6/113/20 39/114/20 38/102/20
f 32/103/21 33/115/21 66/116/21 65/104/21
f 12/105/22 13/117/22 46/118/22 45/106/22
f 19/108/23 20/119/23 53/120/23 52/109/23
f 26/111/24 27/121/24 60/122/24 59/112/24
f 6/113/25 7/123/25 40/124/25 39/114/25
f 33/115/26 2/67/26 35/70/26 66/116/26
f 13/117/27 14/125/27 47/126/27 46/118/27
f 20/119/28 21/127/28 54/128/28 53/120/28
f 27/121/29 28/129/29 61/130/29 60/122/29
f 7/123/30 8/131/30 41/132/30 40/124/30
f 14/125/31 15/71/31 48/74/31 47/126/31
f 21/127/32 22/75/32 55/78/32 54/128/32
f 28/129/33 29/79/33 62/82/33 61/130/33
f 8/131/34 9/83/34 42/86/34 41/132/34
