# Blender v2.90.1 OBJ File: 'Assets_Labirinto.blend'
# www.blender.org
mtllib SM_Grama_004.mtl
o GramaTri_Plane.012
v -0.491198 0.700000 0.480041
v -0.152677 0.001470 0.152677
v 0.704628 0.700000 0.195207
v 0.302508 0.001470 0.042502
v -0.096965 0.700000 -0.608871
v -0.002846 0.001470 -0.262853
v 0.089227 1.513693 0.340077
v 0.045059 0.003178 0.122225
v 0.279873 1.513693 -0.207958
v 0.116930 0.003178 -0.086827
v -0.243686 1.513693 -0.093494
v -0.082136 0.003178 -0.042984
vt 0.970385 0.655795
vt 0.977545 0.662879
vt 0.971277 0.665589
vt 0.968544 0.662888
vt 0.977545 0.672754
vt 0.971278 0.669345
vt 0.967975 0.671728
vt 0.968868 0.679001
vt 0.061767 0.980343
vt 0.060790 0.975690
vt 0.073921 0.974163
vt 0.074294 0.975938
vt 0.060702 0.971029
vt 0.073888 0.972390
vt 0.074294 0.970511
vt 0.061770 0.966097
vn -0.9018 -0.2836 -0.3261
vn 0.6861 -0.2460 -0.6846
vn 0.2200 -0.3260 0.9194
vn -0.7913 -0.0644 0.6080
vn -0.2137 -0.0553 -0.9753
vn 0.9421 -0.0750 0.3267
usemtl (null)
s off
f 1/1/1 5/2/1 6/3/1 2/4/1
f 3/5/2 4/6/2 6/3/2 5/2/2
f 2/7/3 4/6/3 3/5/3 1/8/3
f 7/9/4 11/10/4 12/11/4 8/12/4
f 9/13/5 10/14/5 12/11/5 11/10/5
f 8/15/6 10/14/6 9/13/6 7/16/6
