# Blender v2.90.1 OBJ File: 'Assets_Labirinto.blend'
# www.blender.org
mtllib SM_Grama_001.mtl
o Grama_Plane.014
v 1.000000 -0.000000 0.004384
v 1.000000 1.007919 0.016338
v -1.000000 0.000000 -0.008697
v -1.000000 1.007919 -0.032411
v -0.000000 0.007919 -0.004709
v 1.000000 0.500000 0.032949
v 0.000000 1.339984 -0.000067
v -1.000000 0.500000 -0.065360
v 0.000000 0.693109 -0.033089
v -0.500000 1.193109 -0.044250
v -0.500000 0.000000 -0.043022
v -0.500000 0.599136 -0.159654
v 0.500000 -0.000000 0.021688
v 0.500000 1.193109 0.022307
v 0.500000 0.599136 0.080483
v -0.000000 -0.000000 -1.000000
v -0.000000 1.007919 -1.000000
v 0.000000 0.000000 1.000000
v 0.000000 1.007919 1.000000
v 0.034015 0.007919 0.000000
v -0.000000 0.500000 -1.000000
v 0.045084 1.339984 -0.000000
v 0.000000 0.500000 1.000000
v 0.223638 0.693109 0.000000
v 0.028214 1.193109 0.500000
v 0.002311 0.000000 0.500000
v 0.091911 0.599136 0.500000
v 0.002311 -0.000000 -0.500000
v 0.028214 1.193109 -0.500000
v 0.091911 0.599136 -0.500000
vt 0.022803 0.970465
vt 0.017600 0.970523
vt 0.019197 0.966097
vt 0.023680 0.966103
vt 0.028039 0.970472
vt 0.028070 0.966100
vt 0.028051 0.979295
vt 0.022812 0.979317
vt 0.021962 0.974876
vt 0.027963 0.974894
vt 0.017619 0.979282
vt 0.016316 0.974910
vt 0.023686 0.983684
vt 0.019225 0.983682
vt 0.028070 0.983674
vt 0.967148 0.967154
vt 0.961897 0.967058
vt 0.963596 0.962664
vt 0.968071 0.962714
vt 0.972434 0.967132
vt 0.972462 0.962741
vt 0.972434 0.975889
vt 0.967148 0.975867
vt 0.966281 0.971511
vt 0.972329 0.971511
vt 0.961897 0.975964
vt 0.960576 0.971511
vt 0.968071 0.980307
vt 0.963596 0.980357
vt 0.972462 0.980280
vn 0.1417 -0.1321 0.9811
vn 0.1109 0.1548 0.9817
vn -0.1409 -0.0234 0.9897
vn -0.1299 0.0201 0.9913
vn -0.1726 0.1105 0.9788
vn -0.1396 -0.1176 0.9832
vn 0.0724 0.0675 0.9951
vn 0.0567 -0.0791 0.9953
vn 0.9892 0.0572 0.1351
vn 0.9930 -0.0810 0.0855
vn 0.9680 -0.2104 -0.1368
vn 0.9639 0.1882 -0.1885
vn 0.9680 -0.2104 0.1368
vn 0.9639 0.1882 0.1885
vn 0.9892 0.0572 -0.1351
vn 0.9930 -0.0810 -0.0855
usemtl (null)
s off
f 12/1/1 10/2/1 4/3/1 8/4/1
f 11/5/2 12/1/2 8/4/2 3/6/2
f 13/7/3 15/8/3 9/9/3 5/10/3
f 15/8/4 14/11/4 7/12/4 9/9/4
f 5/10/5 9/9/5 12/1/5 11/5/5
f 9/9/6 7/12/6 10/2/6 12/1/6
f 6/13/7 2/14/7 14/11/7 15/8/7
f 1/15/8 6/13/8 15/8/8 13/7/8
f 27/16/9 25/17/9 19/18/9 23/19/9
f 26/20/10 27/16/10 23/19/10 18/21/10
f 28/22/11 30/23/11 24/24/11 20/25/11
f 30/23/12 29/26/12 22/27/12 24/24/12
f 20/25/13 24/24/13 27/16/13 26/20/13
f 24/24/14 22/27/14 25/17/14 27/16/14
f 21/28/15 17/29/15 29/26/15 30/23/15
f 16/30/16 21/28/16 30/23/16 28/22/16
