# Blender v2.90.1 OBJ File: 'Assets_Labirinto.blend'
# www.blender.org
mtllib SM_PortaElevador.mtl
o PortaElevador_Cube.002
v 1.376796 3.048086 1.143623
v 1.376796 3.048086 -1.143622
v 1.376796 4.476073 1.143623
v 1.426452 3.048086 -1.143622
v 1.426452 3.048086 1.143623
v 1.426452 4.476073 1.143623
v 1.376796 4.476073 -1.143622
v 1.426452 4.476073 -1.143622
v -1.376796 3.048086 1.143623
v -1.376796 3.048086 -1.143622
v -1.376796 4.476073 1.143623
v -1.426452 3.048086 -1.143622
v -1.426452 3.048086 1.143623
v -1.426452 4.476073 1.143623
v -1.376796 4.476073 -1.143622
v -1.426452 4.476073 -1.143622
vt 0.935343 0.668215
vt 0.915450 0.668215
vt 0.915450 0.655795
vt 0.935343 0.655795
vt 0.935343 0.668647
vt 0.935343 0.681067
vt 0.915450 0.681067
vt 0.915450 0.668647
vt 0.974474 0.852287
vt 0.974474 0.864707
vt 0.974042 0.864707
vt 0.974042 0.852287
vt 0.106926 0.978516
vt 0.106926 0.966097
vt 0.107358 0.966097
vt 0.107358 0.978516
vt 0.915450 0.681499
vt 0.935343 0.681499
vt 0.935343 0.668215
vt 0.935343 0.655795
vt 0.915450 0.655795
vt 0.915450 0.668215
vt 0.935343 0.668647
vt 0.915450 0.668647
vt 0.915450 0.681067
vt 0.935343 0.681067
vt 0.974474 0.852287
vt 0.974042 0.852287
vt 0.974042 0.864707
vt 0.974474 0.864707
vt 0.106926 0.978516
vt 0.107358 0.978516
vt 0.107358 0.966097
vt 0.106926 0.966097
vt 0.915450 0.681499
vt 0.935343 0.681499
vn -1.0000 -0.0000 0.0000
vn 1.0000 0.0000 0.0000
vn 0.0000 -1.0000 0.0000
vn 0.0000 0.0000 1.0000
vn 0.0000 0.0000 -1.0000
vn 0.0000 1.0000 0.0000
usemtl (null)
s off
f 2/1/1 1/2/1 3/3/1 7/4/1
f 4/5/2 8/6/2 6/7/2 5/8/2
f 1/2/3 2/1/3 4/5/3 5/8/3
f 3/9/4 1/10/4 5/11/4 6/12/4
f 2/13/5 7/14/5 8/15/5 4/16/5
f 3/17/6 6/7/6 8/6/6 7/18/6
f 10/19/2 15/20/2 11/21/2 9/22/2
f 12/23/1 13/24/1 14/25/1 16/26/1
f 9/22/3 13/24/3 12/23/3 10/19/3
f 11/27/4 14/28/4 13/29/4 9/30/4
f 10/31/5 12/32/5 16/33/5 15/34/5
f 11/35/6 15/36/6 16/26/6 14/25/6
