# Blender v2.90.1 OBJ File: 'Assets_Labirinto.blend'
# www.blender.org
mtllib SM_TijoloConcreto_003.mtl
o TijolosConcreto.002_Cube.012
v -2.000000 19.500000 -0.500000
v -1.314670 19.842665 0.500000
v -2.000000 21.500000 -0.500000
v -1.314670 21.157335 0.500000
v 2.000000 19.500000 -0.500000
v 1.314670 19.842665 0.500000
v 2.000000 21.500000 -0.500000
v 1.314670 21.157335 0.500000
v -2.000000 19.500000 0.086983
v -2.000000 21.500000 0.086983
v 2.000000 21.500000 0.086983
v 2.000000 19.500000 0.086983
v 0.000000 15.500000 -0.500000
v 0.685330 15.842665 0.500000
v 0.000000 17.500000 -0.500000
v 0.685330 17.157335 0.500000
v 4.000000 15.500000 -0.500000
v 3.314670 15.842665 0.500000
v 4.000000 17.500000 -0.500000
v 3.314670 17.157335 0.500000
v 0.000000 15.500000 0.086983
v 0.000000 17.500000 0.086983
v 4.000000 17.500000 0.086983
v 4.000000 15.500000 0.086983
v 2.000000 11.500000 -0.500000
v 2.685330 11.842665 0.500000
v 2.000000 13.500000 -0.500000
v 2.685330 13.157335 0.500000
v 6.000000 11.500000 -0.500000
v 5.314671 11.842665 0.500000
v 6.000000 13.500000 -0.500000
v 5.314671 13.157335 0.500000
v 2.000000 11.500000 0.086983
v 2.000000 13.500000 0.086983
v 6.000000 13.500000 0.086983
v 6.000000 11.500000 0.086983
v 4.000000 7.500000 -0.500000
v 4.685329 7.842665 0.500000
v 4.000000 9.500000 -0.500000
v 4.685329 9.157335 0.500000
v 8.000000 7.500000 -0.500000
v 7.314671 7.842665 0.500000
v 8.000000 9.500000 -0.500000
v 7.314671 9.157335 0.500000
v 4.000000 7.500000 0.086983
v 4.000000 9.500000 0.086983
v 8.000000 9.500000 0.086983
v 8.000000 7.500000 0.086983
v 6.000000 3.500000 -0.500000
v 6.685329 3.842665 0.500000
v 6.000000 5.500000 -0.500000
v 6.685329 5.157335 0.500000
v 10.000000 3.500000 -0.500000
v 9.314671 3.842665 0.500000
v 10.000000 5.500000 -0.500000
v 9.314671 5.157335 0.500000
v 6.000000 3.500000 0.086983
v 6.000000 5.500000 0.086983
v 10.000000 5.500000 0.086983
v 10.000000 3.500000 0.086983
vt 0.955346 0.506344
vt 0.960451 0.506344
vt 0.960451 0.523739
vt 0.955346 0.523739
vt 0.955346 0.528845
vt 0.920555 0.528845
vt 0.920555 0.523740
vt 0.915450 0.523739
vt 0.915450 0.506344
vt 0.920555 0.506344
vt 0.920555 0.501239
vt 0.955346 0.501239
vt 0.926516 0.485137
vt 0.949385 0.485137
vt 0.949385 0.496571
vt 0.926516 0.496571
vt 0.951467 0.482304
vt 0.943432 0.474169
vt 0.946289 0.467158
vt 0.958513 0.479535
vt 0.923579 0.485520
vt 0.916088 0.484427
vt 0.955346 0.506344
vt 0.960451 0.506344
vt 0.960451 0.523739
vt 0.955346 0.523739
vt 0.955346 0.528845
vt 0.920555 0.528845
vt 0.920555 0.523740
vt 0.915450 0.523739
vt 0.915450 0.506344
vt 0.920555 0.506344
vt 0.920555 0.501239
vt 0.955346 0.501239
vt 0.926516 0.485137
vt 0.949385 0.485137
vt 0.949385 0.496571
vt 0.926516 0.496571
vt 0.951467 0.482304
vt 0.943432 0.474169
vt 0.946289 0.467158
vt 0.958513 0.479535
vt 0.923579 0.485520
vt 0.916088 0.484427
vt 0.955346 0.506344
vt 0.960451 0.506344
vt 0.960451 0.523739
vt 0.955346 0.523739
vt 0.955346 0.528845
vt 0.920555 0.528845
vt 0.920555 0.523740
vt 0.915450 0.523739
vt 0.915450 0.506344
vt 0.920555 0.506344
vt 0.920555 0.501239
vt 0.955346 0.501239
vt 0.926516 0.485137
vt 0.949385 0.485137
vt 0.949385 0.496571
vt 0.926516 0.496571
vt 0.951467 0.482304
vt 0.943432 0.474169
vt 0.946289 0.467158
vt 0.958513 0.479535
vt 0.923579 0.485520
vt 0.916088 0.484427
vt 0.955346 0.506344
vt 0.960451 0.506344
vt 0.960451 0.523739
vt 0.955346 0.523739
vt 0.955346 0.528845
vt 0.920555 0.528845
vt 0.920555 0.523740
vt 0.915450 0.523739
vt 0.915450 0.506344
vt 0.920555 0.506344
vt 0.920555 0.501239
vt 0.955346 0.501239
vt 0.926516 0.485137
vt 0.949385 0.485137
vt 0.949385 0.496571
vt 0.926516 0.496571
vt 0.951467 0.482304
vt 0.943432 0.474169
vt 0.946289 0.467158
vt 0.958513 0.479535
vt 0.923579 0.485520
vt 0.916088 0.484427
vt 0.955346 0.506344
vt 0.960451 0.506344
vt 0.960451 0.523739
vt 0.955346 0.523739
vt 0.955346 0.528845
vt 0.920555 0.528845
vt 0.920555 0.523740
vt 0.915450 0.523739
vt 0.915450 0.506344
vt 0.920555 0.506344
vt 0.920555 0.501239
vt 0.955346 0.501239
vt 0.926516 0.485137
vt 0.949385 0.485137
vt 0.949385 0.496571
vt 0.926516 0.496571
vt 0.951467 0.482304
vt 0.943432 0.474169
vt 0.946289 0.467158
vt 0.958513 0.479535
vt 0.923579 0.485520
vt 0.916088 0.484427
vn -1.0000 0.0000 0.0000
vn 0.0000 1.0000 0.0000
vn 1.0000 0.0000 0.0000
vn 0.0000 -1.0000 0.0000
vn 0.0000 0.0000 -1.0000
vn 0.0000 -0.0000 1.0000
vn -0.5162 -0.0000 0.8565
vn 0.0000 0.7696 0.6385
vn 0.5162 -0.0000 0.8565
vn 0.0000 -0.7696 0.6385
usemtl (null)
s off
f 1/1/1 9/2/1 10/3/1 3/4/1
f 3/4/2 10/5/2 11/6/2 7/7/2
f 7/7/3 11/8/3 12/9/3 5/10/3
f 5/10/4 12/11/4 9/12/4 1/1/4
f 3/4/5 7/7/5 5/10/5 1/1/5
f 8/13/6 4/14/6 2/15/6 6/16/6
f 2/17/7 4/18/7 10/19/7 9/20/7
f 4/18/8 8/21/8 11/22/8 10/19/8
f 8/21/9 6/16/9 12/11/9 11/22/9
f 6/16/10 2/15/10 9/12/10 12/11/10
f 13/23/1 21/24/1 22/25/1 15/26/1
f 15/26/2 22/27/2 23/28/2 19/29/2
f 19/29/3 23/30/3 24/31/3 17/32/3
f 17/32/4 24/33/4 21/34/4 13/23/4
f 15/26/5 19/29/5 17/32/5 13/23/5
f 20/35/6 16/36/6 14/37/6 18/38/6
f 14/39/7 16/40/7 22/41/7 21/42/7
f 16/40/8 20/43/8 23/44/8 22/41/8
f 20/43/9 18/38/9 24/33/9 23/44/9
f 18/38/10 14/37/10 21/34/10 24/33/10
f 25/45/1 33/46/1 34/47/1 27/48/1
f 27/48/2 34/49/2 35/50/2 31/51/2
f 31/51/3 35/52/3 36/53/3 29/54/3
f 29/54/4 36/55/4 33/56/4 25/45/4
f 27/48/5 31/51/5 29/54/5 25/45/5
f 32/57/6 28/58/6 26/59/6 30/60/6
f 26/61/7 28/62/7 34/63/7 33/64/7
f 28/62/8 32/65/8 35/66/8 34/63/8
f 32/65/9 30/60/9 36/55/9 35/66/9
f 30/60/10 26/59/10 33/56/10 36/55/10
f 37/67/1 45/68/1 46/69/1 39/70/1
f 39/70/2 46/71/2 47/72/2 43/73/2
f 43/73/3 47/74/3 48/75/3 41/76/3
f 41/76/4 48/77/4 45/78/4 37/67/4
f 39/70/5 43/73/5 41/76/5 37/67/5
f 44/79/6 40/80/6 38/81/6 42/82/6
f 38/83/7 40/84/7 46/85/7 45/86/7
f 40/84/8 44/87/8 47/88/8 46/85/8
f 44/87/9 42/82/9 48/77/9 47/88/9
f 42/82/10 38/81/10 45/78/10 48/77/10
f 49/89/1 57/90/1 58/91/1 51/92/1
f 51/92/2 58/93/2 59/94/2 55/95/2
f 55/95/3 59/96/3 60/97/3 53/98/3
f 53/98/4 60/99/4 57/100/4 49/89/4
f 51/92/5 55/95/5 53/98/5 49/89/5
f 56/101/6 52/102/6 50/103/6 54/104/6
f 50/105/7 52/106/7 58/107/7 57/108/7
f 52/106/8 56/109/8 59/110/8 58/107/8
f 56/109/9 54/104/9 60/99/9 59/110/9
f 54/104/10 50/103/10 57/100/10 60/99/10
